<?xml version="1.0" encoding="iso-8859-1"?>
<!-- Generator: Adobe Illustrator 26.0.1, SVG Export Plug-In . SVG Version: 6.00 Build 0)  -->
<svg version="1.1" id="Layer_1" xmlns="http://www.w3.org/2000/svg" xmlns:xlink="http://www.w3.org/1999/xlink" x="0px" y="0px"
	 viewBox="0 0 500 500" style="enable-background:new 0 0 500 500;" xml:space="preserve">
<g id="watermark_1_">
	<g>
		<g id="watermark" style="opacity:0.61;">
			<g>
				<g>
					<g>
						<g>
							<polygon style="fill:#FFFFFF;" points="213.765,461.172 208.204,474.017 205.268,474.017 199.726,461.172 202.938,461.172 
								206.846,470.347 210.81,461.172 							"/>
						</g>
						<g>
							<path style="fill:#FFFFFF;" d="M223.507,469.741h-7.469c0.275,1.23,1.321,1.982,2.826,1.982c1.046,0,1.798-0.312,2.477-0.954
								l1.523,1.651c-0.917,1.046-2.294,1.597-4.074,1.597c-3.413,0-5.634-2.147-5.634-5.083c0-2.954,2.257-5.083,5.267-5.083
								c2.899,0,5.138,1.945,5.138,5.12C223.562,469.191,223.526,469.503,223.507,469.741 M216.002,468.071h4.863
								c-0.202-1.248-1.138-2.055-2.422-2.055C217.139,466.016,216.204,466.805,216.002,468.071"/>
						</g>
						<g>
							<path style="fill:#FFFFFF;" d="M224.735,468.934c0-2.973,2.294-5.083,5.505-5.083c2.074,0,3.707,0.899,4.423,2.514
								l-2.22,1.193c-0.532-0.936-1.321-1.358-2.221-1.358c-1.45,0-2.587,1.009-2.587,2.734c0,1.725,1.138,2.734,2.587,2.734
								c0.899,0,1.688-0.404,2.221-1.358l2.22,1.211c-0.716,1.578-2.349,2.495-4.423,2.495
								C227.029,474.017,224.735,471.907,224.735,468.934"/>
						</g>
						<g>
							<path style="fill:#FFFFFF;" d="M242.828,473.393c-0.587,0.422-1.45,0.624-2.331,0.624c-2.33,0-3.688-1.193-3.688-3.542
								v-4.055h-1.523v-2.202h1.523v-2.404h2.863v2.404h2.459v2.202h-2.459v4.019c0,0.844,0.458,1.303,1.229,1.303
								c0.422,0,0.844-0.128,1.156-0.367L242.828,473.393z"/>
						</g>
					</g>
					<g>
						<path style="fill:#FFFFFF;" d="M262.474,463.997v2.643c-0.238-0.018-0.422-0.037-0.642-0.037
							c-1.578,0-2.624,0.862-2.624,2.753v4.661h-2.863v-9.873h2.734v1.303C259.776,464.493,260.951,463.997,262.474,463.997"/>
					</g>
					<g>
						<path style="fill:#FFFFFF;" d="M263.299,472.53l1.009-2.239c1.083,0.789,2.697,1.339,4.239,1.339
							c1.762,0,2.477-0.587,2.477-1.376c0-2.404-7.469-0.752-7.469-5.524c0-2.184,1.762-4,5.413-4c1.615,0,3.267,0.385,4.459,1.138
							l-0.918,2.257c-1.193-0.679-2.422-1.009-3.56-1.009c-1.761,0-2.44,0.66-2.44,1.468c0,2.367,7.468,0.734,7.468,5.45
							c0,2.147-1.78,3.982-5.45,3.982C266.492,474.017,264.437,473.411,263.299,472.53"/>
					</g>
					<g>
						<path style="fill:#FFFFFF;" d="M285.428,469.741h-7.469c0.275,1.23,1.321,1.982,2.826,1.982c1.046,0,1.798-0.312,2.477-0.954
							l1.523,1.651c-0.918,1.046-2.294,1.597-4.074,1.597c-3.413,0-5.634-2.147-5.634-5.083c0-2.954,2.257-5.083,5.267-5.083
							c2.9,0,5.138,1.945,5.138,5.12C285.484,469.191,285.447,469.503,285.428,469.741 M277.923,468.071h4.863
							c-0.202-1.248-1.138-2.055-2.422-2.055C279.061,466.016,278.125,466.805,277.923,468.071"/>
					</g>
					<g>
						<path style="fill:#FFFFFF;" d="M297.007,469.741h-7.469c0.275,1.23,1.321,1.982,2.826,1.982c1.046,0,1.798-0.312,2.477-0.954
							l1.523,1.651c-0.918,1.046-2.294,1.597-4.074,1.597c-3.413,0-5.634-2.147-5.634-5.083c0-2.954,2.257-5.083,5.267-5.083
							c2.899,0,5.138,1.945,5.138,5.12C297.062,469.191,297.025,469.503,297.007,469.741 M289.501,468.071h4.863
							c-0.202-1.248-1.138-2.055-2.422-2.055C290.639,466.016,289.703,466.805,289.501,468.071"/>
					</g>
					<g>
						<polygon style="fill:#FFFFFF;" points="303.208,470.145 301.831,471.503 301.831,474.017 298.969,474.017 298.969,460.401 
							301.831,460.401 301.831,468.108 306.016,464.144 309.429,464.144 305.318,468.328 309.796,474.017 306.327,474.017 						"/>
					</g>
					<g>
						<path style="fill:#FFFFFF;" d="M256.601,475.359L256.601,475.359l-2.86-2.86c-0.435,0.508-0.953,0.943-1.534,1.284
							c-0.092,0.069-0.186,0.136-0.283,0.199l3.027,3.027c0.456,0.456,1.195,0.456,1.65,0
							C257.057,476.554,257.057,475.815,256.601,475.359"/>
					</g>
					<g>
						<path style="fill:#FFFFFF;" d="M249.984,463.244c0.221-0.173,0.495-0.281,0.797-0.281c0.042,0,0.083,0.002,0.124,0.006
							c-0.214-0.156-0.478-0.249-0.764-0.249c-0.395,0-0.744,0.18-0.981,0.458c-0.051,0-0.1,0.006-0.151,0.008
							c0.039-0.077,0.064-0.162,0.064-0.255c0-0.234-0.143-0.434-0.346-0.519c0.087,0.126,0.138,0.279,0.138,0.445
							c0,0.122-0.031,0.237-0.081,0.341c-2.811,0.201-5.03,2.539-5.03,5.4c0,2.993,2.426,5.42,5.42,5.42
							c2.993,0,5.42-2.426,5.42-5.42C254.595,465.879,252.593,463.635,249.984,463.244 M247.983,464.656
							c0.435,0,0.844,0.112,1.199,0.309c0.374-0.245,0.82-0.387,1.299-0.387c0.711,0,1.348,0.312,1.784,0.806
							c-0.435-0.379-1.004-0.61-1.627-0.61c-0.449,0-0.87,0.12-1.234,0.329c-0.079,0.046-0.156,0.096-0.229,0.15
							c-0.065-0.048-0.133-0.093-0.204-0.134c-0.369-0.219-0.8-0.344-1.26-0.344c-0.3,0-0.588,0.054-0.854,0.152
							C247.196,464.754,247.578,464.656,247.983,464.656 M251.772,469.098c0.115,0.305,0.181,0.634,0.181,0.979
							c0,1.534-1.244,2.777-2.778,2.777c-1.534,0-2.777-1.243-2.777-2.777c0-0.345,0.066-0.674,0.181-0.979
							c-0.62-0.382-1.035-1.064-1.035-1.846c0-1.197,0.971-2.168,2.168-2.168c0.565,0,1.078,0.218,1.463,0.572
							c0.386-0.354,0.899-0.572,1.464-0.572c1.197,0,2.168,0.971,2.168,2.168C252.807,468.034,252.392,468.716,251.772,469.098"/>
					</g>
					<g>
						<path style="fill:#FFFFFF;" d="M251.666,467.061c0,0.497-0.404,0.901-0.901,0.901c-0.497,0-0.901-0.404-0.901-0.901
							s0.404-0.901,0.901-0.901c0.101,0,0.197,0.017,0.287,0.047c-0.03,0.062-0.045,0.132-0.045,0.204
							c0,0.273,0.221,0.494,0.494,0.494c0.05,0,0.099-0.008,0.146-0.022C251.66,466.941,251.666,467,251.666,467.061"/>
					</g>
					<g>
						<path style="fill:#FFFFFF;" d="M248.255,467.061c0,0.376-0.305,0.681-0.681,0.681c-0.376,0-0.681-0.305-0.681-0.681
							s0.305-0.681,0.681-0.681c0.076,0,0.149,0.013,0.217,0.035c-0.023,0.047-0.034,0.1-0.034,0.155
							c0,0.206,0.167,0.374,0.374,0.374c0.038,0,0.075-0.006,0.11-0.017C248.25,466.97,248.255,467.015,248.255,467.061"/>
					</g>
					<g>
						<g>
							<g>
								<rect x="242.908" y="467.83" style="fill:#FFFFFF;" width="0.616" height="0.616"/>
							</g>
							<g>
								<rect x="254.827" y="467.83" style="fill:#FFFFFF;" width="0.616" height="0.616"/>
							</g>
							<g>
								<path style="fill:#FFFFFF;" d="M255.205,468.082h-0.14c0-3.248-2.642-5.89-5.89-5.89c-3.248,0-5.89,2.642-5.89,5.89h-0.14
									c0-1.611,0.627-3.125,1.766-4.264c1.139-1.139,2.653-1.766,4.264-1.766c1.611,0,3.125,0.627,4.264,1.766
									C254.578,464.957,255.205,466.471,255.205,468.082"/>
							</g>
						</g>
						<g>
							<rect x="248.868" y="461.814" style="fill:#FFFFFF;" width="0.616" height="0.616"/>
						</g>
						<g>
							<rect x="244.95" y="462.052" style="fill:#FFFFFF;" width="8.45" height="0.14"/>
						</g>
						<g>
							<path style="fill:#FFFFFF;" d="M245.174,462.15c0,0.108-0.088,0.196-0.196,0.196c-0.108,0-0.196-0.088-0.196-0.196
								c0-0.108,0.088-0.196,0.196-0.196C245.086,461.954,245.174,462.042,245.174,462.15"/>
						</g>
						<g>
							<path style="fill:#FFFFFF;" d="M253.596,462.15c0,0.108-0.088,0.196-0.196,0.196c-0.108,0-0.196-0.088-0.196-0.196
								c0-0.108,0.088-0.196,0.196-0.196C253.509,461.954,253.596,462.042,253.596,462.15"/>
						</g>
					</g>
				</g>
				<g>
					<path style="fill:#FFFFFF;" d="M314.356,473.409c0,1.559-2.364,1.559-2.364,0C311.993,471.851,314.356,471.851,314.356,473.409
						z"/>
				</g>
				<g>
					<g>
						<g>
							<path style="fill:#FFFFFF;" d="M161.739,466.549l1.772,6.088l1.855-6.088h2.215l-2.823,8.14h-2.33l-0.837-2.396l-0.722-2.708
								l-0.722,2.708l-0.837,2.396h-2.33l-2.839-8.14h2.231l1.855,6.088l1.756-6.088H161.739z"/>
						</g>
						<g>
							<path style="fill:#FFFFFF;" d="M176.713,466.549l1.772,6.088l1.855-6.088h2.215l-2.823,8.14h-2.33l-0.837-2.396l-0.722-2.708
								l-0.722,2.708l-0.837,2.396h-2.33l-2.839-8.14h2.231l1.855,6.088l1.756-6.088H176.713z"/>
						</g>
						<g>
							<path style="fill:#FFFFFF;" d="M191.687,466.549l1.772,6.088l1.855-6.088h2.215l-2.823,8.14h-2.33l-0.837-2.396l-0.722-2.708
								l-0.722,2.708l-0.837,2.396h-2.33l-2.839-8.14h2.231l1.855,6.088l1.756-6.088H191.687z"/>
						</g>
					</g>
					<g>
						<path style="fill:#FFFFFF;" d="M200.908,473.52c0,1.559-2.364,1.559-2.364,0C198.545,471.962,200.908,471.962,200.908,473.52z
							"/>
					</g>
					<g>
						<path style="fill:#FFFFFF;" d="M322.71,473.409c-0.935,0.919-1.919,1.28-3.117,1.28c-2.346,0-4.3-1.411-4.3-4.282
							s1.953-4.284,4.3-4.284c1.149,0,2.035,0.329,2.921,1.199l-1.264,1.329c-0.476-0.428-1.066-0.64-1.623-0.64
							c-1.346,0-2.33,0.985-2.33,2.396c0,1.542,1.05,2.362,2.297,2.362c0.64,0,1.28-0.18,1.772-0.672L322.71,473.409z"/>
					</g>
					<g>
						<path style="fill:#FFFFFF;" d="M331.805,470.472c0,2.33-1.591,4.217-4.217,4.217c-2.626,0-4.201-1.887-4.201-4.217
							c0-2.314,1.609-4.217,4.185-4.217C330.149,466.255,331.805,468.158,331.805,470.472z M325.389,470.472
							c0,1.231,0.739,2.38,2.199,2.38c1.46,0,2.199-1.149,2.199-2.38c0-1.215-0.854-2.396-2.199-2.396
							C326.144,468.077,325.389,469.258,325.389,470.472z"/>
					</g>
					<g>
						<path style="fill:#FFFFFF;" d="M338.572,474.689v-4.332c0-1.068-0.559-2.035-1.658-2.035c-1.082,0-1.722,0.967-1.722,2.035
							v4.332h-2.003v-8.107h1.855l0.148,0.985c0.426-0.82,1.362-1.116,2.133-1.116c0.969,0,1.937,0.394,2.396,1.51
							c0.723-1.149,1.658-1.478,2.708-1.478c2.297,0,3.43,1.412,3.43,3.84v4.365h-2.003v-4.365c0-1.066-0.442-1.97-1.526-1.97
							c-1.082,0-1.756,0.935-1.756,2.003v4.332H338.572z"/>
					</g>
				</g>
			</g>
		</g>
		<g style="opacity:0.61;">
			<g>
				<g>
					<path style="fill:#FFFFFF;" d="M345.988,431.299c-0.006-1.224-0.959-2.121-2.189-2.14c-0.924-0.014-0.832,0.12-0.834-0.867
						c-0.003-1.097-0.007-2.194,0.003-3.292c0.003-0.379-0.112-0.691-0.362-0.976c-2.342-2.668-4.678-5.342-7.019-8.011
						c-0.12-0.137-0.275-0.244-0.414-0.366c-6.214,0-12.427,0-18.641,0c-0.794,0.293-1.14,0.868-1.138,1.709
						c0.01,3.748,0.004,7.496,0.004,11.243c0,0.556-0.003,0.589-0.55,0.551c-1.497-0.102-2.516,0.986-2.497,2.492
						c0.044,3.476,0.013,6.953,0.014,10.429c0.001,1.58,0.867,2.443,2.45,2.449c0.582,0.002,0.582,0.002,0.582,0.6
						c0,2.219-0.001,4.438,0.001,6.657c0.001,1.192,0.58,1.771,1.768,1.771c8.013,0.001,16.027,0.001,24.04,0
						c1.168,0,1.755-0.583,1.757-1.745c0.002-2.256,0-4.512,0.001-6.768c0-0.512,0.002-0.511,0.52-0.515
						c0.271-0.002,0.541,0.008,0.809-0.058c0.996-0.246,1.69-1.044,1.694-2.069C346.003,438.696,346.005,434.997,345.988,431.299z
						 M317.537,417.162c5.337,0,10.674,0,16.01,0c0.548,0,0.554,0.007,0.554,0.561c0.001,2.243-0.001,4.486,0.001,6.73
						c0.001,0.811,0.249,1.059,1.06,1.059c1.91,0.001,3.821,0,5.731,0.001c0.458,0,0.479,0.021,0.481,0.483
						c0.003,0.887,0.002,1.775,0,2.662c-0.001,0.477-0.024,0.498-0.504,0.499c-3.895,0.001-7.79,0-11.684,0
						c-3.882,0-7.765,0-11.647,0c-0.55,0-0.552-0.001-0.552-0.561c-0.001-3.624-0.001-7.247,0-10.871
						C316.987,417.166,316.991,417.162,317.537,417.162z M340.822,451.579c-3.883,0.001-7.766,0-11.65,0c-3.871,0-7.742,0-11.613,0
						c-0.572,0-0.574-0.002-0.574-0.579c-0.001-1.997-0.001-3.994,0.001-5.991c0-0.464,0.023-0.486,0.478-0.487
						c7.803-0.001,15.607-0.001,23.41,0c0.478,0,0.499,0.02,0.499,0.503c0.002,1.997,0.001,3.994,0,5.991
						C341.375,451.574,341.37,451.579,340.822,451.579z"/>
				</g>
				<g>
					<g>
						<rect x="327.418" y="417.053" style="fill:#FFFFFF;" width="1.757" height="1.054"/>
					</g>
					<g>
						<rect x="325.662" y="418.107" style="fill:#FFFFFF;" width="1.757" height="1.054"/>
					</g>
					<g>
						<rect x="327.418" y="419.161" style="fill:#FFFFFF;" width="1.757" height="1.054"/>
					</g>
					<g>
						<rect x="325.662" y="420.215" style="fill:#FFFFFF;" width="1.757" height="1.054"/>
					</g>
					<g>
						<rect x="327.418" y="421.269" style="fill:#FFFFFF;" width="1.757" height="1.054"/>
					</g>
					<g>
						<rect x="325.662" y="422.323" style="fill:#FFFFFF;" width="1.757" height="1.054"/>
					</g>
					<g>
						<rect x="327.418" y="423.378" style="fill:#FFFFFF;" width="1.757" height="1.054"/>
					</g>
					<g>
						<rect x="325.662" y="424.432" style="fill:#FFFFFF;" width="1.757" height="1.054"/>
					</g>
					<g>
						<rect x="327.418" y="425.486" style="fill:#FFFFFF;" width="1.757" height="1.054"/>
					</g>
					<g>
						<rect x="325.662" y="426.54" style="fill:#FFFFFF;" width="1.757" height="1.054"/>
					</g>
					<g>
						<rect x="327.418" y="427.594" style="fill:#FFFFFF;" width="1.757" height="1.054"/>
					</g>
					<g>
						<rect x="325.662" y="428.648" style="fill:#FFFFFF;" width="1.757" height="1.054"/>
					</g>
				</g>
			</g>
			<g>
				<path style="fill:#FFFFFF;" d="M187.637,431.299c-0.006-1.224-0.959-2.121-2.189-2.14c-0.924-0.014-0.832,0.12-0.834-0.867
					c-0.003-1.097-0.007-2.194,0.003-3.292c0.003-0.379-0.112-0.691-0.362-0.976c-2.342-2.668-4.678-5.342-7.019-8.011
					c-0.12-0.137-0.275-0.244-0.414-0.366c-6.214,0-12.427,0-18.641,0c-0.794,0.293-1.14,0.868-1.138,1.709
					c0.01,3.748,0.004,7.496,0.004,11.243c0,0.556-0.003,0.589-0.55,0.551c-1.497-0.102-2.516,0.986-2.497,2.492
					c0.044,3.476,0.013,6.953,0.014,10.429c0.001,1.58,0.867,2.443,2.45,2.449c0.582,0.002,0.582,0.002,0.582,0.6
					c0,2.219-0.001,4.438,0.001,6.657c0.001,1.192,0.58,1.771,1.768,1.771c8.013,0.001,16.027,0.001,24.04,0
					c1.168,0,1.755-0.583,1.757-1.745c0.002-2.256,0-4.512,0.001-6.768c0-0.512,0.002-0.511,0.52-0.515
					c0.271-0.002,0.541,0.008,0.809-0.058c0.996-0.246,1.69-1.044,1.694-2.069C187.652,438.696,187.655,434.997,187.637,431.299z
					 M159.187,417.162c5.337,0,10.674,0,16.01,0c0.548,0,0.554,0.007,0.554,0.561c0.001,2.243-0.001,4.486,0.001,6.73
					c0.001,0.811,0.249,1.059,1.06,1.059c1.91,0.001,3.821,0,5.731,0.001c0.458,0,0.479,0.021,0.481,0.483
					c0.003,0.887,0.002,1.775,0,2.662c-0.001,0.477-0.024,0.498-0.504,0.499c-3.895,0.001-7.79,0-11.684,0
					c-3.882,0-7.765,0-11.647,0c-0.55,0-0.552-0.001-0.552-0.561c-0.001-3.624-0.001-7.247,0-10.871
					C158.636,417.166,158.64,417.162,159.187,417.162z M182.472,451.579c-3.883,0.001-7.766,0-11.65,0c-3.871,0-7.742,0-11.613,0
					c-0.572,0-0.574-0.002-0.574-0.579c-0.001-1.997-0.001-3.994,0.001-5.991c0-0.464,0.023-0.486,0.478-0.487
					c7.803-0.001,15.607-0.001,23.41,0c0.478,0,0.499,0.02,0.499,0.503c0.002,1.997,0.001,3.994,0,5.991
					C183.024,451.574,183.019,451.579,182.472,451.579z"/>
			</g>
			<g>
				<path style="fill:#FFFFFF;" d="M159.779,440.669v-7.897h2.779c0.375,0,0.726,0.061,1.053,0.182
					c0.327,0.121,0.612,0.292,0.855,0.513c0.242,0.221,0.434,0.483,0.573,0.789c0.14,0.305,0.21,0.642,0.21,1.009
					c0,0.375-0.07,0.715-0.21,1.02c-0.14,0.305-0.331,0.568-0.573,0.789c-0.243,0.221-0.528,0.392-0.855,0.513
					c-0.327,0.121-0.678,0.182-1.053,0.182h-1.29v2.901H159.779z M162.58,436.356c0.39,0,0.684-0.111,0.882-0.331
					c0.199-0.22,0.298-0.474,0.298-0.761c0-0.14-0.024-0.276-0.072-0.408c-0.048-0.132-0.121-0.248-0.221-0.347
					c-0.099-0.099-0.223-0.178-0.37-0.237c-0.147-0.059-0.32-0.089-0.518-0.089h-1.312v2.173H162.58z"/>
				<path style="fill:#FFFFFF;" d="M166.308,432.771h1.731l3.177,5.294h0.088l-0.088-1.522v-3.772h1.478v7.897h-1.566l-3.353-5.592
					h-0.088l0.088,1.522v4.07h-1.467V432.771z"/>
				<path style="fill:#FFFFFF;" d="M177.922,436.334h3.872c0.022,0.089,0.04,0.195,0.055,0.32c0.014,0.125,0.022,0.25,0.022,0.375
					c0,0.507-0.077,0.985-0.231,1.434c-0.154,0.449-0.397,0.849-0.728,1.202c-0.353,0.375-0.776,0.666-1.268,0.871
					c-0.493,0.206-1.055,0.309-1.688,0.309c-0.574,0-1.114-0.103-1.622-0.309c-0.507-0.206-0.948-0.492-1.323-0.86
					c-0.375-0.367-0.673-0.803-0.894-1.307c-0.221-0.504-0.331-1.053-0.331-1.649c0-0.595,0.11-1.145,0.331-1.649
					c0.221-0.504,0.518-0.939,0.894-1.307c0.375-0.367,0.816-0.654,1.323-0.86c0.507-0.206,1.048-0.309,1.622-0.309
					c0.64,0,1.211,0.11,1.715,0.331c0.504,0.221,0.935,0.526,1.296,0.915l-1.025,1.004c-0.258-0.272-0.544-0.48-0.861-0.623
					c-0.316-0.143-0.695-0.215-1.136-0.215c-0.361,0-0.703,0.065-1.026,0.193c-0.324,0.129-0.607,0.311-0.85,0.546
					c-0.242,0.235-0.436,0.52-0.579,0.855c-0.143,0.335-0.215,0.708-0.215,1.119c0,0.412,0.072,0.785,0.215,1.12
					c0.143,0.335,0.338,0.62,0.584,0.855c0.246,0.235,0.531,0.418,0.855,0.546c0.323,0.129,0.669,0.193,1.037,0.193
					c0.419,0,0.773-0.061,1.064-0.182c0.29-0.121,0.538-0.278,0.744-0.469c0.148-0.132,0.275-0.3,0.381-0.502
					c0.106-0.202,0.189-0.428,0.248-0.678h-2.482V436.334z"/>
			</g>
			<g>
				<path style="fill:#FFFFFF;" d="M224.019,431.299c-0.006-1.224-0.959-2.121-2.189-2.14c-0.924-0.014-0.832,0.12-0.834-0.867
					c-0.003-1.097-0.007-2.194,0.003-3.292c0.003-0.379-0.112-0.691-0.362-0.976c-2.342-2.668-4.678-5.342-7.019-8.011
					c-0.12-0.137-0.275-0.244-0.414-0.366c-6.214,0-12.427,0-18.641,0c-0.794,0.293-1.14,0.868-1.138,1.709
					c0.01,3.748,0.004,7.496,0.004,11.243c0,0.556-0.003,0.589-0.55,0.551c-1.497-0.102-2.516,0.986-2.497,2.492
					c0.044,3.476,0.013,6.953,0.014,10.429c0.001,1.58,0.867,2.443,2.45,2.449c0.582,0.002,0.582,0.002,0.582,0.6
					c0,2.219-0.001,4.438,0.001,6.657c0.001,1.192,0.58,1.771,1.768,1.771c8.013,0.001,16.027,0.001,24.04,0
					c1.168,0,1.755-0.583,1.757-1.745c0.002-2.256,0-4.512,0.001-6.768c0-0.512,0.002-0.511,0.52-0.515
					c0.271-0.002,0.541,0.008,0.809-0.058c0.997-0.246,1.69-1.044,1.694-2.069C224.034,438.696,224.036,434.997,224.019,431.299z
					 M195.568,417.162c5.337,0,10.674,0,16.01,0c0.548,0,0.554,0.007,0.554,0.561c0.001,2.243-0.001,4.486,0.001,6.73
					c0.001,0.811,0.249,1.059,1.06,1.059c1.91,0.001,3.821,0,5.731,0.001c0.458,0,0.479,0.021,0.481,0.483
					c0.003,0.887,0.002,1.775,0,2.662c-0.001,0.477-0.024,0.498-0.504,0.499c-3.895,0.001-7.79,0-11.684,0
					c-3.882,0-7.765,0-11.647,0c-0.55,0-0.552-0.001-0.552-0.561c-0.001-3.624-0.001-7.247,0-10.871
					C195.018,417.166,195.022,417.162,195.568,417.162z M218.854,451.579c-3.883,0.001-7.766,0-11.65,0c-3.871,0-7.742,0-11.613,0
					c-0.572,0-0.574-0.002-0.574-0.579c-0.001-1.997-0.001-3.994,0.001-5.991c0-0.464,0.023-0.486,0.478-0.487
					c7.803-0.001,15.607-0.001,23.41,0c0.478,0,0.499,0.02,0.499,0.503c0.002,1.997,0.001,3.994,0,5.991
					C219.406,451.574,219.401,451.579,218.854,451.579z"/>
			</g>
			<g>
				<path style="fill:#FFFFFF;" d="M205.111,432.771h1.699l2.967,7.897h-1.644l-0.651-1.886h-3.044l-0.651,1.886h-1.643
					L205.111,432.771z M206.997,437.415l-0.706-1.974l-0.287-0.96h-0.088l-0.287,0.96l-0.706,1.974H206.997z"/>
				<path style="fill:#FFFFFF;" d="M211.331,434.536c-0.125,0-0.245-0.024-0.359-0.072c-0.114-0.048-0.213-0.114-0.298-0.199
					c-0.084-0.084-0.151-0.182-0.198-0.292c-0.048-0.11-0.072-0.232-0.072-0.364s0.024-0.254,0.072-0.364
					c0.048-0.11,0.114-0.208,0.198-0.292c0.084-0.084,0.184-0.151,0.298-0.198c0.114-0.048,0.233-0.072,0.359-0.072
					c0.257,0,0.478,0.09,0.662,0.27c0.184,0.181,0.276,0.399,0.276,0.656s-0.092,0.476-0.276,0.656
					C211.809,434.446,211.589,434.536,211.331,434.536z M210.615,440.669v-5.404h1.445v5.404H210.615z"/>
			</g>
			<g>
				<path style="fill:#FFFFFF;" d="M261.044,431.299c-0.006-1.224-0.959-2.121-2.189-2.14c-0.924-0.014-0.832,0.12-0.834-0.867
					c-0.003-1.097-0.007-2.194,0.003-3.292c0.003-0.379-0.112-0.691-0.362-0.976c-2.342-2.668-4.678-5.342-7.019-8.011
					c-0.12-0.137-0.275-0.244-0.414-0.366c-6.214,0-12.427,0-18.641,0c-0.794,0.293-1.14,0.868-1.138,1.709
					c0.01,3.748,0.004,7.496,0.004,11.243c0,0.556-0.003,0.589-0.55,0.551c-1.497-0.102-2.516,0.986-2.497,2.492
					c0.044,3.476,0.013,6.953,0.014,10.429c0.001,1.58,0.867,2.443,2.45,2.449c0.582,0.002,0.582,0.002,0.582,0.6
					c0,2.219-0.001,4.438,0.001,6.657c0.001,1.192,0.58,1.771,1.768,1.771c8.013,0.001,16.027,0.001,24.04,0
					c1.168,0,1.755-0.583,1.757-1.745c0.002-2.256,0-4.512,0.001-6.768c0-0.512,0.002-0.511,0.52-0.515
					c0.271-0.002,0.541,0.008,0.809-0.058c0.996-0.246,1.69-1.044,1.694-2.069C261.059,438.696,261.061,434.997,261.044,431.299z
					 M232.593,417.162c5.337,0,10.674,0,16.01,0c0.548,0,0.554,0.007,0.554,0.561c0.001,2.243-0.001,4.486,0.001,6.73
					c0.001,0.811,0.249,1.059,1.06,1.059c1.91,0.001,3.821,0,5.731,0.001c0.458,0,0.479,0.021,0.481,0.483
					c0.003,0.887,0.002,1.775,0,2.662c-0.001,0.477-0.024,0.498-0.504,0.499c-3.895,0.001-7.79,0-11.684,0
					c-3.882,0-7.765,0-11.647,0c-0.55,0-0.552-0.001-0.552-0.561c-0.001-3.624-0.001-7.247,0-10.871
					C232.042,417.166,232.047,417.162,232.593,417.162z M255.878,451.579c-3.883,0.001-7.766,0-11.65,0c-3.871,0-7.742,0-11.613,0
					c-0.572,0-0.574-0.002-0.574-0.579c-0.001-1.997-0.001-3.994,0.001-5.991c0-0.464,0.023-0.486,0.478-0.487
					c7.803-0.001,15.607-0.001,23.41,0c0.478,0,0.499,0.02,0.499,0.503c0.002,1.997,0.001,3.994,0,5.991
					C256.431,451.574,256.426,451.579,255.878,451.579z"/>
			</g>
			<g>
				<path style="fill:#FFFFFF;" d="M236.361,440.845c-0.338,0-0.662-0.048-0.971-0.143c-0.309-0.095-0.592-0.239-0.849-0.43
					c-0.257-0.191-0.481-0.425-0.673-0.7c-0.191-0.276-0.342-0.597-0.452-0.965l1.401-0.551c0.103,0.397,0.283,0.726,0.54,0.987
					c0.257,0.261,0.596,0.392,1.015,0.392c0.154,0,0.303-0.02,0.447-0.061c0.143-0.04,0.272-0.099,0.386-0.176
					s0.204-0.175,0.27-0.292c0.066-0.118,0.099-0.254,0.099-0.408c0-0.147-0.026-0.279-0.077-0.397
					c-0.051-0.117-0.138-0.227-0.259-0.331c-0.121-0.103-0.28-0.202-0.475-0.298c-0.195-0.095-0.435-0.195-0.722-0.298l-0.485-0.176
					c-0.213-0.073-0.429-0.173-0.645-0.298c-0.217-0.125-0.413-0.276-0.59-0.452c-0.177-0.176-0.322-0.384-0.436-0.623
					c-0.114-0.239-0.171-0.509-0.171-0.81c0-0.309,0.06-0.597,0.182-0.866c0.121-0.268,0.294-0.503,0.518-0.706
					c0.224-0.202,0.492-0.36,0.805-0.474s0.66-0.171,1.042-0.171c0.397,0,0.74,0.053,1.031,0.16
					c0.291,0.107,0.537,0.243,0.739,0.408c0.202,0.165,0.366,0.348,0.491,0.546c0.125,0.199,0.217,0.386,0.276,0.563l-1.312,0.551
					c-0.074-0.221-0.208-0.419-0.402-0.596c-0.195-0.176-0.462-0.265-0.8-0.265c-0.324,0-0.592,0.075-0.805,0.226
					c-0.213,0.151-0.32,0.348-0.32,0.59c0,0.235,0.103,0.436,0.309,0.601c0.206,0.165,0.533,0.325,0.982,0.48l0.497,0.165
					c0.316,0.111,0.605,0.237,0.866,0.381c0.261,0.143,0.485,0.314,0.673,0.513c0.187,0.199,0.331,0.425,0.43,0.678
					c0.1,0.254,0.149,0.546,0.149,0.877c0,0.412-0.083,0.767-0.248,1.064c-0.165,0.298-0.377,0.542-0.634,0.734
					c-0.258,0.191-0.548,0.335-0.872,0.43C236.986,440.797,236.67,440.845,236.361,440.845z"/>
				<path style="fill:#FFFFFF;" d="M239.516,432.771h1.61l1.633,4.754l0.287,1.015h0.088l0.309-1.015l1.699-4.754h1.61l-2.879,7.897
					h-1.566L239.516,432.771z"/>
				<path style="fill:#FFFFFF;" d="M251.097,436.334h3.871c0.022,0.089,0.04,0.195,0.055,0.32c0.015,0.125,0.023,0.25,0.023,0.375
					c0,0.507-0.078,0.985-0.232,1.434c-0.154,0.449-0.397,0.849-0.728,1.202c-0.353,0.375-0.775,0.666-1.268,0.871
					c-0.493,0.206-1.055,0.309-1.688,0.309c-0.574,0-1.114-0.103-1.621-0.309c-0.507-0.206-0.949-0.492-1.324-0.86
					c-0.375-0.367-0.673-0.803-0.894-1.307c-0.22-0.504-0.331-1.053-0.331-1.649c0-0.595,0.11-1.145,0.331-1.649
					c0.221-0.504,0.518-0.939,0.894-1.307c0.375-0.367,0.816-0.654,1.324-0.86c0.507-0.206,1.047-0.309,1.621-0.309
					c0.64,0,1.211,0.11,1.715,0.331c0.504,0.221,0.936,0.526,1.296,0.915l-1.026,1.004c-0.257-0.272-0.544-0.48-0.861-0.623
					c-0.316-0.143-0.694-0.215-1.136-0.215c-0.36,0-0.702,0.065-1.026,0.193c-0.323,0.129-0.607,0.311-0.849,0.546
					c-0.243,0.235-0.436,0.52-0.579,0.855c-0.143,0.335-0.215,0.708-0.215,1.119c0,0.412,0.072,0.785,0.215,1.12
					c0.143,0.335,0.338,0.62,0.585,0.855c0.246,0.235,0.531,0.418,0.854,0.546c0.324,0.129,0.669,0.193,1.037,0.193
					c0.419,0,0.774-0.061,1.064-0.182c0.29-0.121,0.539-0.278,0.745-0.469c0.147-0.132,0.274-0.3,0.38-0.502
					c0.107-0.202,0.189-0.428,0.248-0.678h-2.482V436.334z"/>
			</g>
			<g>
				<path style="fill:#FFFFFF;" d="M297.3,431.299c-0.006-1.224-0.959-2.121-2.189-2.14c-0.924-0.014-0.832,0.12-0.834-0.867
					c-0.003-1.097-0.007-2.194,0.003-3.292c0.003-0.379-0.112-0.691-0.362-0.976c-2.342-2.668-4.678-5.342-7.019-8.011
					c-0.12-0.137-0.275-0.244-0.414-0.366c-6.214,0-12.427,0-18.641,0c-0.794,0.293-1.14,0.868-1.138,1.709
					c0.01,3.748,0.004,7.496,0.004,11.243c0,0.556-0.003,0.589-0.55,0.551c-1.497-0.102-2.516,0.986-2.497,2.492
					c0.044,3.476,0.013,6.953,0.014,10.429c0.001,1.58,0.867,2.443,2.45,2.449c0.582,0.002,0.582,0.002,0.582,0.6
					c0,2.219-0.001,4.438,0.001,6.657c0.001,1.192,0.58,1.771,1.768,1.771c8.013,0.001,16.027,0.001,24.04,0
					c1.168,0,1.755-0.583,1.757-1.745c0.002-2.256,0-4.512,0.001-6.768c0-0.512,0.002-0.511,0.52-0.515
					c0.271-0.002,0.541,0.008,0.809-0.058c0.996-0.246,1.69-1.044,1.694-2.069C297.315,438.696,297.318,434.997,297.3,431.299z
					 M268.85,417.162c5.337,0,10.674,0,16.01,0c0.548,0,0.554,0.007,0.554,0.561c0.001,2.243-0.001,4.486,0.001,6.73
					c0.001,0.811,0.249,1.059,1.06,1.059c1.91,0.001,3.821,0,5.731,0.001c0.458,0,0.479,0.021,0.481,0.483
					c0.003,0.887,0.002,1.775,0,2.662c-0.001,0.477-0.024,0.498-0.504,0.499c-3.895,0.001-7.79,0-11.684,0
					c-3.882,0-7.765,0-11.647,0c-0.55,0-0.552-0.001-0.552-0.561c-0.001-3.624-0.001-7.247,0-10.871
					C268.299,417.166,268.303,417.162,268.85,417.162z M292.135,451.579c-3.883,0.001-7.766,0-11.65,0c-3.871,0-7.742,0-11.613,0
					c-0.572,0-0.574-0.002-0.574-0.579c-0.001-1.997-0.001-3.994,0.001-5.991c0-0.464,0.023-0.486,0.478-0.487
					c7.803-0.001,15.607-0.001,23.41,0c0.478,0,0.499,0.02,0.499,0.503c0.001,1.997,0.001,3.994,0,5.991
					C292.687,451.574,292.682,451.579,292.135,451.579z"/>
			</g>
			<g>
				<path style="fill:#FFFFFF;" d="M272.966,434.183v1.831h3.165v1.412h-3.165v1.831h3.518v1.412h-5.007v-7.897h5.007v1.412H272.966
					z"/>
				<path style="fill:#FFFFFF;" d="M277.852,440.669v-7.897h2.779c0.375,0,0.726,0.061,1.053,0.182
					c0.327,0.121,0.612,0.292,0.855,0.513c0.243,0.221,0.434,0.483,0.574,0.789c0.14,0.305,0.209,0.642,0.209,1.009
					c0,0.375-0.07,0.715-0.209,1.02c-0.14,0.305-0.331,0.568-0.574,0.789c-0.243,0.221-0.528,0.392-0.855,0.513
					c-0.327,0.121-0.678,0.182-1.053,0.182h-1.29v2.901H277.852z M280.653,436.356c0.389,0,0.684-0.111,0.882-0.331
					c0.199-0.22,0.298-0.474,0.298-0.761c0-0.14-0.024-0.276-0.072-0.408c-0.048-0.132-0.121-0.248-0.221-0.347
					c-0.099-0.099-0.222-0.178-0.37-0.237c-0.147-0.059-0.32-0.089-0.518-0.089h-1.312v2.173H280.653z"/>
				<path style="fill:#FFFFFF;" d="M286.797,440.845c-0.338,0-0.662-0.048-0.971-0.143c-0.309-0.095-0.592-0.239-0.849-0.43
					c-0.257-0.191-0.482-0.425-0.673-0.7c-0.191-0.276-0.342-0.597-0.452-0.965l1.401-0.551c0.103,0.397,0.283,0.726,0.541,0.987
					c0.257,0.261,0.595,0.392,1.015,0.392c0.154,0,0.303-0.02,0.447-0.061c0.143-0.04,0.272-0.099,0.386-0.176
					c0.114-0.077,0.204-0.175,0.27-0.292c0.066-0.118,0.1-0.254,0.1-0.408c0-0.147-0.026-0.279-0.077-0.397
					c-0.051-0.117-0.138-0.227-0.259-0.331c-0.121-0.103-0.279-0.202-0.474-0.298c-0.195-0.095-0.436-0.195-0.723-0.298
					l-0.485-0.176c-0.213-0.073-0.428-0.173-0.645-0.298c-0.217-0.125-0.414-0.276-0.59-0.452c-0.176-0.176-0.322-0.384-0.436-0.623
					c-0.114-0.239-0.171-0.509-0.171-0.81c0-0.309,0.061-0.597,0.182-0.866c0.121-0.268,0.294-0.503,0.518-0.706
					c0.224-0.202,0.493-0.36,0.805-0.474c0.312-0.114,0.66-0.171,1.042-0.171c0.397,0,0.741,0.053,1.031,0.16
					c0.29,0.107,0.537,0.243,0.739,0.408c0.202,0.165,0.365,0.348,0.491,0.546c0.125,0.199,0.217,0.386,0.276,0.563l-1.312,0.551
					c-0.074-0.221-0.208-0.419-0.403-0.596c-0.195-0.176-0.462-0.265-0.799-0.265c-0.324,0-0.592,0.075-0.805,0.226
					c-0.213,0.151-0.32,0.348-0.32,0.59c0,0.235,0.103,0.436,0.309,0.601c0.206,0.165,0.533,0.325,0.982,0.48l0.496,0.165
					c0.316,0.111,0.605,0.237,0.866,0.381c0.261,0.143,0.485,0.314,0.673,0.513c0.187,0.199,0.331,0.425,0.43,0.678
					c0.099,0.254,0.149,0.546,0.149,0.877c0,0.412-0.083,0.767-0.248,1.064c-0.165,0.298-0.377,0.542-0.634,0.734
					c-0.258,0.191-0.548,0.335-0.872,0.43C287.422,440.797,287.105,440.845,286.797,440.845z"/>
			</g>
			<g>
				<path style="fill:#FFFFFF;" d="M321.394,439.168l4.004-4.985h-3.827v-1.412h5.559v1.5l-3.96,4.985h4.004v1.412h-5.779V439.168z"
					/>
				<path style="fill:#FFFFFF;" d="M328.409,432.771h1.489v7.897h-1.489V432.771z"/>
				<path style="fill:#FFFFFF;" d="M331.486,440.669v-7.897h2.779c0.375,0,0.726,0.061,1.053,0.182
					c0.327,0.121,0.612,0.292,0.855,0.513s0.434,0.483,0.574,0.789c0.14,0.305,0.209,0.642,0.209,1.009
					c0,0.375-0.07,0.715-0.209,1.02c-0.14,0.305-0.331,0.568-0.574,0.789c-0.243,0.221-0.528,0.392-0.855,0.513
					c-0.327,0.121-0.678,0.182-1.053,0.182h-1.29v2.901H331.486z M334.288,436.356c0.389,0,0.684-0.111,0.882-0.331
					c0.199-0.22,0.298-0.474,0.298-0.761c0-0.14-0.024-0.276-0.072-0.408c-0.048-0.132-0.121-0.248-0.221-0.347
					c-0.099-0.099-0.222-0.178-0.37-0.237c-0.147-0.059-0.32-0.089-0.518-0.089h-1.312v2.173H334.288z"/>
			</g>
		</g>
		<g style="opacity:0.61;">
			<path style="fill:#FFFFFF;" d="M300.133,433.27h9.067v2.242h-9.067V433.27z M300.133,437.136h9.067v2.243h-9.067V437.136z"/>
		</g>
	</g>
	<g style="opacity:0.61;">
		<path style="fill:#FFFFFF;" d="M156.756,478.878h1.607c1.263,0,2.114,0.812,2.114,1.974c0,1.161-0.851,1.973-2.114,1.973h-1.607
			V478.878z M158.34,482.464c1.049,0,1.725-0.665,1.725-1.612c0-0.947-0.677-1.613-1.725-1.613h-1.167v3.225H158.34z"/>
		<path style="fill:#FFFFFF;" d="M165.139,480.851c0-1.15,0.879-2.007,2.075-2.007c1.184,0,2.069,0.851,2.069,2.007
			c0,1.156-0.885,2.007-2.069,2.007C166.019,482.858,165.139,482.002,165.139,480.851z M168.866,480.851
			c0-0.942-0.705-1.635-1.652-1.635c-0.953,0-1.663,0.693-1.663,1.635c0,0.941,0.71,1.635,1.663,1.635
			C168.162,482.486,168.866,481.793,168.866,480.851z"/>
		<path style="fill:#FFFFFF;" d="M179.596,478.878l-1.331,3.947h-0.44l-1.156-3.366l-1.161,3.366h-0.434l-1.331-3.947h0.429
			l1.139,3.394l1.178-3.394h0.389l1.161,3.411l1.156-3.411H179.596z"/>
		<path style="fill:#FFFFFF;" d="M187.731,478.878v3.947h-0.344l-2.537-3.202v3.202h-0.417v-3.947h0.344l2.543,3.203v-3.203H187.731
			z"/>
		<path style="fill:#FFFFFF;" d="M193.093,478.878h0.417v3.586h2.21v0.361h-2.627V478.878z"/>
		<path style="fill:#FFFFFF;" d="M200.061,480.851c0-1.15,0.879-2.007,2.075-2.007c1.184,0,2.069,0.851,2.069,2.007
			c0,1.156-0.885,2.007-2.069,2.007C200.941,482.858,200.061,482.002,200.061,480.851z M203.788,480.851
			c0-0.942-0.705-1.635-1.652-1.635c-0.953,0-1.663,0.693-1.663,1.635c0,0.941,0.71,1.635,1.663,1.635
			C203.083,482.486,203.788,481.793,203.788,480.851z"/>
		<path style="fill:#FFFFFF;" d="M211.636,481.77h-2.199l-0.474,1.054h-0.434l1.804-3.947h0.412l1.804,3.947h-0.44L211.636,481.77z
			 M211.484,481.432l-0.947-2.12l-0.947,2.12H211.484z"/>
		<path style="fill:#FFFFFF;" d="M217.28,478.878h1.607c1.263,0,2.114,0.812,2.114,1.974c0,1.161-0.851,1.973-2.114,1.973h-1.607
			V478.878z M218.864,482.464c1.049,0,1.725-0.665,1.725-1.612c0-0.947-0.677-1.613-1.725-1.613h-1.167v3.225H218.864z"/>
		<path style="fill:#FFFFFF;" d="M234.041,481.77h-2.199l-0.474,1.054h-0.434l1.804-3.947h0.412l1.804,3.947h-0.44L234.041,481.77z
			 M233.889,481.432l-0.947-2.12l-0.947,2.12H233.889z"/>
		<path style="fill:#FFFFFF;" d="M239.685,478.878h0.417v3.586h2.21v0.361h-2.627V478.878z"/>
		<path style="fill:#FFFFFF;" d="M247.082,478.878h0.417v3.586h2.21v0.361h-2.627V478.878z"/>
		<path style="fill:#FFFFFF;" d="M260.449,479.239v1.551h2.041v0.361h-2.041v1.675h-0.417v-3.947h2.706v0.361H260.449z"/>
		<path style="fill:#FFFFFF;" d="M267.678,478.878h0.417v3.947h-0.417V478.878z"/>
		<path style="fill:#FFFFFF;" d="M273.456,478.878h0.417v3.586h2.21v0.361h-2.627V478.878z"/>
		<path style="fill:#FFFFFF;" d="M283.644,482.464v0.361h-2.791v-3.947h2.706v0.361h-2.289v1.404h2.041v0.355h-2.041v1.466H283.644z
			"/>
		<path style="fill:#FFFFFF;" d="M294.672,479.239v1.551h2.041v0.361h-2.041v1.675h-0.417v-3.947h2.706v0.361H294.672z"/>
		<path style="fill:#FFFFFF;" d="M301.5,480.851c0-1.15,0.879-2.007,2.075-2.007c1.184,0,2.069,0.851,2.069,2.007
			c0,1.156-0.885,2.007-2.069,2.007C302.379,482.858,301.5,482.002,301.5,480.851z M305.226,480.851
			c0-0.942-0.705-1.635-1.652-1.635c-0.953,0-1.663,0.693-1.663,1.635c0,0.941,0.71,1.635,1.663,1.635
			C304.522,482.486,305.226,481.793,305.226,480.851z"/>
		<path style="fill:#FFFFFF;" d="M313.351,482.825l-0.902-1.269c-0.102,0.011-0.203,0.017-0.316,0.017h-1.06v1.252h-0.417v-3.947
			h1.477c1.004,0,1.613,0.507,1.613,1.353c0,0.62-0.327,1.054-0.902,1.24l0.964,1.353H313.351z M313.328,480.231
			c0-0.632-0.417-0.992-1.207-0.992h-1.048v1.979h1.048C312.911,481.218,313.328,480.851,313.328,480.231z"/>
		<path style="fill:#FFFFFF;" d="M322.907,478.878v3.947h-0.4v-3.158l-1.551,2.656h-0.197l-1.551-2.639v3.14h-0.4v-3.947h0.344
			l1.714,2.926l1.697-2.926H322.907z"/>
		<path style="fill:#FFFFFF;" d="M330.744,481.77h-2.199l-0.473,1.054h-0.434l1.804-3.947h0.411l1.804,3.947h-0.44L330.744,481.77z
			 M330.592,481.432l-0.947-2.12l-0.947,2.12H330.592z"/>
		<path style="fill:#FFFFFF;" d="M336.957,479.239h-1.387v-0.361h3.192v0.361h-1.387v3.586h-0.417V479.239z"/>
		<path style="fill:#FFFFFF;" d="M343.063,482.346l0.164-0.321c0.282,0.276,0.784,0.479,1.302,0.479c0.739,0,1.06-0.31,1.06-0.699
			c0-1.083-2.43-0.417-2.43-1.877c0-0.581,0.451-1.083,1.455-1.083c0.446,0,0.908,0.13,1.224,0.35l-0.141,0.333
			c-0.338-0.22-0.733-0.327-1.083-0.327c-0.722,0-1.043,0.321-1.043,0.716c0,1.083,2.43,0.429,2.43,1.866
			c0,0.581-0.462,1.077-1.472,1.077C343.937,482.858,343.356,482.65,343.063,482.346z"/>
	</g>
</g>
<g>
</g>
<g>
	<g>
		<path style="fill:#0059EC;" d="M393.346,135.691c2.14,0.866,3.482,1.962,3.776,4.072c0.1,0.716,0.674,1.47,1.23,1.997
			c1.713,1.627,3.331,3.327,4.573,5.273c0.954-0.198,1.11-1.04,1.694-1.418c0.953-0.618,1.937-0.864,2.988-0.312
			c1.035,0.544,1.133,1.489,0.966,2.509c-0.231,1.411-0.295,2.802,0.314,4.153c0.286,0.636,0.035,1.183-0.337,1.721
			c-0.784,1.133-0.238,1.893,0.857,2.206c1.548,0.443,2.541,1.437,3.463,2.682c1.646,2.223,2.315,4.512,1.069,7.151
			c-0.259,0.549-0.34,1.183-0.49,1.782c-0.338,1.348,0.002,2.392,1.247,3.158c3.261,2.004,5.249,5.141,7.226,8.277
			c0.374,0.593,0.614,1.315,1.104,1.78c0.939,0.891,1.215,1.845,0.908,3.092c-0.371,1.507,0.344,2.784,1.196,3.918
			c0.979,1.302,1.909,2.544,1.423,4.32c-0.144,0.525,0.107,1.036,0.385,1.5c0.862,1.437,0.979,2.941,0.628,4.579
			c-0.342,1.598,0.081,2.976,1.723,3.74c0.313,0.146,0.544,0.495,0.862,0.6c3.622,1.195,4.138,4.516,5.052,7.494
			c0.602,1.96-0.208,2.623-2.15,2.005c-1.621-0.516-1.787-0.379-1.468,1.344c0.241,1.298,0.27,2.689,0.671,3.886
			c0.74,2.212,1.933,4.267,4.415,5.073c1.299,0.422,1.593,0.916,0.674,1.782c-3.178,2.996-5.209,6.866-7.994,10.149
			c-1.134,1.336-2.829,2.093-3.789,3.65c-0.478,0.775-1.18,0.543-1.822,0.054c-3.103-2.363-6.017-4.94-8.049-8.306
			c-2.5-4.141-6.091-7.273-9.434-10.645c-1.017-1.026-2.071-0.819-3.08-0.047c-1.749,1.339-3.586,2.597-5.157,4.125
			c-2.348,2.282-4.87,4.326-7.466,6.303c-1.242,0.946-2.36,1.935-3.17,3.424c-0.664,1.22-2.714,1.047-3.785,2.174
			c-0.241,0.254-0.575,0.455-0.439,0.852c0.126,0.369,0.484,0.488,0.84,0.549c1.491,0.255,2.487-0.632,3.499-1.507
			c5.059-4.377,10.117-8.755,15.191-13.115c1.959-1.683,1.95-1.638,3.706,0.299c2.248,2.479,4.547,4.911,6.818,7.369
			c0.417,0.452,0.895,0.881,1.19,1.407c1.305,2.33,3.143,4.229,4.833,6.26c2.497,3,3.079,6.324,0.566,9.596
			c-3.362,4.376-7.296,8.114-11.626,11.47c-1.977,1.531-3.595,1.431-5.742-0.296c-3.707-2.983-7.352-6.035-10.645-9.492
			c-1.333-1.4-2.815-2.663-4.282-3.927c-0.836-0.72-1.833-1.276-2.791-0.215c-0.987,1.094-0.154,1.997,0.559,2.755
			c1.205,1.283,2.402,2.614,3.791,3.678c4.892,3.747,9.218,8.194,14.456,11.52c2.385,1.514,2.844,1.694,4.655-0.418
			c2.867-3.344,6.527-5.926,9.082-9.561c1.517-2.158,2.963-4.374,4.977-6.134c0.55-0.48,0.824-1.133,0.88-1.869
			c0.106-1.389,0.927-1.387,1.812-0.799c2.119,1.408,4.329,2.706,5.604,5.093c1.085,2.033,2.532,3.768,4.439,5.163
			c1.905,1.394,2.107,2.393,1.208,4.559c-0.806,1.942-1.08,3.89-0.551,5.936c0.088,0.34,0.183,0.688,0.199,1.036
			c0.066,1.449-0.437,1.83-1.897,1.423c-0.322-0.09-0.597-0.385-0.996-0.093c-0.363,0.749,0.019,1.512,0.115,2.281
			c0.177,1.411,0.185,2.813-0.14,4.205c-0.246,1.053-0.622,1.472-1.839,0.884c-2.702-1.306-4.877-0.073-5.205,2.965
			c-0.191,1.766-0.869,3.131-2.027,4.449c-1.757,1.999-2.319,4.269-1.004,6.826c1.351,2.626,0.844,3.491-2.457,4.018
			c1.669,1.091,1.954,2.341,0.777,3.805c-0.601,0.747-0.183,1.432,0.157,2.193c0.837,1.874,0.486,2.835-1.399,3.457
			c-2.475,0.817-3.6,2.556-4.162,4.976c-0.678,2.916-0.897,5.923-1.818,8.786c-0.286,0.891-0.177,1.736,0.327,2.532
			c0.525,0.828,0.617,1.725-0.065,2.449c-1.66,1.762-3.021,4.057-5.925,3.642c-0.45,0.633,0.062,0.864,0.308,1.16
			c0.831,1.002,0.632,1.787-0.517,2.299c-1.224,0.545-2.279,1.323-3.31,2.157c-1.36,1.101-2.441,2.236-1.863,4.256
			c0.332,1.162-0.207,2.054-1.547,2.273c-2.155,0.354-3.082,1.831-3.443,3.822c-0.677,3.731-2.644,6.486-6.182,7.993
			c-0.953,0.406-1.624,0.934-1.879,2.012c-0.44,1.86-2.33,3.011-2.433,5.134c-0.042,0.859-1.14,0.983-1.967,0.628
			c-0.969-0.416-1.904-0.909-2.868-1.335c-0.25-0.11-0.536,0.009-0.686,0.253c-0.159,0.257-0.069,0.517,0.152,0.697
			c0.203,0.166,0.437,0.294,0.664,0.428c0.81,0.48,1.386,1.103,1.256,2.127c-0.141,1.116-1.117,0.89-1.823,1.139
			c-5.862,2.067-11.941,2.173-18.007,1.698c-3.354-0.263-6.687-0.179-10.03-0.249c-1.672-0.035-3.346,0.031-4.994-0.397
			c-1.634-0.425-2.599-1.341-2.739-3.102c-0.091-1.137-0.273-2.281-0.556-3.385c-0.792-3.098-0.91-6.232-0.982-9.419
			c-0.102-4.57-0.719-9.122-0.58-13.714c0.08-2.649,0.237-5.284,0.617-7.901c0.255-1.758,0.544-1.833,2.041-0.746
			c1.212,0.88,1.334,0.856,1.855-0.701c0.23-0.687,0.498-1.327,1.057-1.791c1.174-0.974,1.857-1.989,1.166-3.655
			c-0.389-0.938,0.501-1.719,1.284-2.069c2.881-1.289,3.908-4.159,5.661-6.407c0.43-0.551,0.669-1.267,1.15-1.756
			c0.656-0.668,1.105-1.353,1.054-2.313c-0.091-1.722,0.416-3.118,2.08-3.928c0.687-0.334,0.852-0.843,0.3-1.476
			c-0.886-1.017-0.386-2.02,0.152-2.926c0.762-1.284,1.557-2.568,2.501-3.719c1.681-2.05,2.492-4.622,2.679-6.989
			c0.194-2.458,1.298-3.655,3.037-4.777c0.359-0.232,0.766-0.388,1.311-0.659c-1.864-1.391-2.016-3.159-1.465-5.051
			c0.591-2.03,1.234-4.046,1.927-6.043c0.914-2.636,1.514-3.031,4.234-3.024c0.429,0.001,0.87,0.199,1.421-0.177
			c-0.536-1.455-1.459-2.692-2.609-3.9c0.601-1.135,2.573-1.065,2.499-2.695c-0.611-0.566-1.221-0.301-1.811-0.203
			c-0.513,0.085-1.036,0.302-1.518-0.225c0.031-0.217-0.028-0.567,0.116-0.705c1.994-1.916,2.109-4.168,1.735-6.789
			c-0.36-2.521,0.11-5.115,1.296-7.454c0.583-1.15,0.775-2.326,0.72-3.577c-0.207-4.68-0.235-9.339,1.206-13.882
			c0.376-1.184,0.012-2.28-0.847-3.164c-1.513-1.557-1.232-3.178-0.188-4.805c0.431-0.672,0.874-1.325,1.094-2.098
			c0.378-1.33,0.156-2.647-1.108-3.215c-2.853-1.282-3.006-3.881-3.368-6.363c-0.283-1.938,0.054-3.87,0.609-5.746
			c0.279-0.943,0.46-1.891,0.283-2.867c-0.245-1.35-0.753-2.488-2.146-3.103c-2.617-1.156-4.051-3.219-4.622-6.024
			c-0.534-2.626-2.069-4.905-2.854-7.457c-0.071-0.232-0.291-0.452-0.495-0.604c-2.131-1.588-2.986-3.906-3.448-6.355
			c-0.269-1.423-1.033-2.121-2.272-2.613c-1.309-0.519-2.607-1.088-3.843-1.76c-1.831-0.995-1.802-1.254-0.814-3.034
			c1.906-3.436,4.721-6.144,7.254-9.056c8.734-10.042,17.892-19.694,27.377-29.032c1.254-1.234,2.622-2.352,3.946-3.514
			c0.329-0.288,0.688-0.556,1.359-0.242c-0.244,1.91-1.348,3.69-1.259,5.75C394.683,131.569,395.087,133.672,393.346,135.691z"/>
		<path style="fill:#0059EC;" d="M403.451,425.15c3.144-0.366,5.953-0.167,8.698-0.901c2.647-0.707,5.296-1.384,8.024-0.247
			c0.852,0.355,1.73,0.019,2.565-0.307c1.727-0.673,3.417-1.424,5.014-2.369c1.153-0.682,2.365-1.22,3.709-1.298
			c3.164-0.183,6.33-0.323,9.497-0.457c0.989-0.042,2.001-0.043,2.238,1.276c0.213,1.184-0.393,2.269-1.544,2.743
			c-0.162,0.067-0.339,0.094-0.507,0.147c-0.713,0.227-1.89,0.008-1.921,0.99c-0.033,1.075,1.163,1.164,1.977,1.367
			c1.653,0.411,3.33,0.365,4.968-0.103c2.075-0.593,2.895-1.735,2.769-3.891c-0.046-0.783-0.261-1.558-0.427-2.331
			c-0.453-2.117-0.19-2.422,2.04-2.475c1.359-0.033,2.597,0.371,3.836,0.861c2.463,0.975,4.873,2.055,7.121,3.463
			c0.514,0.322,1.086,0.716,0.861,1.467c-0.206,0.686-0.841,0.878-1.455,0.972c-1.633,0.248-3.125-0.346-4.623-0.858
			c-1.3-0.445-2.542-1.12-3.963-1.151c-0.238,1.018,0.517,1.387,0.861,1.952c1.563,2.566,0.863,4.668-1.981,5.504
			c-3.984,1.172-8.094,1.81-12.21,2.19c-10.015,0.925-19.953,2.199-29.683,4.876c-3.029,0.833-6.128,1.702-9.357,1.048
			c-2.261,1.272-4.483,0.376-6.741-0.049c-0.742-0.14-1.602,0.033-2.345,0.265c-2.742,0.856-5.566,0.706-8.374,0.903
			c-8.18,0.572-16.383,0.216-24.561,0.729c-0.524,0.033-1.067,0.057-1.579-0.035c-5.124-0.925-10.351-0.82-15.496-1.595
			c-2.27-0.342-4.577,0.179-6.699,1.129c-1.307,0.585-2.309,0.637-3.136-0.752c-0.483-0.811-1.392-1.026-2.305-1.083
			c-2.988-0.187-5.98-0.563-8.965-0.516c-5.214,0.081-10.367-0.613-15.549-0.918c-0.976-0.057-1.931-0.044-2.894,0.102
			c-2.208,0.336-4.377,0.511-6.332-0.977c-0.732-0.557-1.695-0.417-2.57-0.389c-4.078,0.133-8.09-0.407-12.07-1.206
			c-2.699-0.541-5.332-1.282-7.152-3.523c-1.028,0.127-1.158,1.476-2.21,1.368c-0.9-0.093-1.692-0.483-2.464-0.903
			c-4.434-2.41-8.374-5.534-12.309-8.652c-2.414-1.913-4.775-3.901-7.054-5.973c-2.055-1.868-1.994-2.607,0.271-4.011
			c2.85-1.768,5.842-3.294,9.097-4.179c4.017-1.092,7.821-2.71,11.553-4.512c1.782-0.861,1.886-1.334,0.257-2.561
			c-6.329-4.763-12.162-10.165-18.828-14.496c-2.8-1.819-5.667-3.614-7.66-6.405c-0.638-0.894-1.781-1.833-1.044-3.022
			c0.701-1.13,2.052-0.73,3.17-0.579c2.008,0.27,4.052,0.472,5.944,1.214c2.608,1.022,5.277,1.283,8.039,1.148
			c1.226-0.06,2.475-0.012,3.691,0.152c1.521,0.205,1.613,0.471,1.133,2.102c-0.048,0.164-0.101,0.329-0.122,0.497
			c-0.009,0.07,0.062,0.15,0.211,0.476c2.9-0.642,5.66-1.492,7.466-4.221c1.601-2.419,4.444-3.19,7.182-1.986
			c0.885,0.389,1.74,0.848,2.619,1.252c0.855,0.393,1.724,0.757,2.851,1.25c-0.238-1.309-1.129-1.707-1.881-2.189
			c-0.591-0.379-1.243-0.663-1.851-1.017c-0.307-0.179-0.569-0.458-0.533-0.84c0.038-0.401,0.373-0.593,0.73-0.648
			c3.89-0.609,7.295-2.5,10.814-4.085c0.478-0.215,1.044-0.394,1.364-0.767c0.949-1.104,2.171-1.44,3.53-1.513
			c1.702-0.092,2.937-0.918,4.003-2.238c2.831-3.505,6.051-6.483,9.981-8.885c5.845-3.573,11.617-7.381,15.925-12.915
			c0.161-0.207,0.341-0.449,0.567-0.546c3.146-1.346,4.941-4.148,6.883-6.68c1.545-2.014,3.215-3.938,4.658-6.031
			c0.244-0.353,0.428-0.774,0.934-0.739c0.547,0.232,0.552,0.709,0.559,1.131c0.052,3.524,0.634,7.019,0.533,10.553
			c-0.157,5.467,0.323,10.915,0.613,16.367c0.042,0.785,0.186,1.575,0.375,2.341c0.649,2.634,1.512,3.324,4.257,3.336
			c5.289,0.023,10.537,0.738,15.813,0.925c3.785,0.135,7.576,0.108,11.364,0.15c1.057,0.012,2.115-0.009,3.171,0.028
			c0.615,0.022,1.357,0.053,1.548,0.755c0.207,0.759-0.5,1.06-1.047,1.311c-0.878,0.405-1.769,0.814-2.695,1.078
			c-1.413,0.403-2.562,1.067-3.376,2.347c-0.882,1.387-2.298,2.167-3.733,2.858c-1.873,0.902-3.482,2.011-4.314,4.052
			c-0.494,1.212-1.557,1.613-2.839,1.366c-0.607-0.117-1.309-0.372-1.766,0.133c-1.879,2.073-4.614,2.018-6.968,2.902
			c-0.329,0.123-0.678,0.19-1.018,0.283c-1.041,0.283-1.633,0.944-0.985,1.928c0.844,1.282,0.286,2.133-0.559,3.017
			c-0.746,0.781-1.157,1.724-1.515,2.743c-0.495,1.408-0.939,2.692,0.793,3.558c0.076,0.038,0.172,0.107,0.189,0.178
			c0.729,3.097,3.296,2.463,5.302,2.353c5.274-0.289,10.56-0.194,15.833-0.643c2.76-0.235,5.395-0.789,7.995-1.625
			c1.422-0.457,1.589-1.124,0.545-2.32c-1.275-1.461-2.713-2.767-4.262-3.944c-0.356-0.27-0.748-0.594-0.649-1.063
			c0.141-0.67,0.769-0.63,1.284-0.622c1.774,0.029,3.495,0.437,5.211,0.824c4.469,1.009,8.935,2.034,13.391,3.1
			c1.662,0.398,3.355,0.646,4.957,0.073c3.32-1.187,6.646-1.214,10.139-0.993c5.131,0.324,10.149,1.116,15.129,2.28
			c1.454,0.34,2.874,0.834,4.298,1.296c1.931,0.626,3.87,1.323,5.91,1.316c2.869-0.009,5.607,0.64,8.296,1.471
			c2.644,0.817,5.312,1.196,8.064,1.216c3.786,0.027,7.566-0.035,11.353,0.352c3.105,0.317,5.94-0.314,7.669-3.449
			c0.826-1.497,2.337-2.369,3.964-2.929c0.785-0.27,1.42-0.126,1.568,0.821c0.271,1.73,0.812,3.445,0.251,5.223
			c-0.291,0.923-0.55,1.859-0.761,2.803c-1.328,5.936-5.673,8.138-11.109,8.897c-1.399,0.195-2.814,0.311-4.151,0.748
			c-4.064,1.328-8.294,1.546-12.493,1.939c-1.572,0.147-2.958,0.482-3.896,1.844c-0.688,0.999-1.625,1.415-2.746,0.988
			c-3.151-1.203-5.863,0.042-8.556,1.427c-2.977,1.53-5.943,3.081-8.901,4.647c-4.111,2.178-8.476,3.393-13.125,3.69
			C406.018,421.817,404.793,422.603,403.451,425.15z M434.505,400.081c-1.29-0.607-2.654-0.908-4.022-1.117
			c-4.698-0.719-9.436-1.217-14.099-2.114c-5.552-1.068-10.855,0.087-16.187,1.258c-1.189,0.261-2.467,0.505-3.188,1.666
			c-0.467,0.753-0.869,1.599-0.384,2.483c0.475,0.866,1.339,0.767,2.114,0.571c1.47-0.371,2.768,0.066,4.083,0.644
			c1.126,0.495,2.284,0.926,3.453,1.311c1.766,0.581,3.454,0.463,5.031-0.655c1.718-1.218,3.687-1.587,5.759-1.593
			c5.298-0.017,10.531-0.715,15.745-1.575C433.39,400.864,434.078,400.958,434.505,400.081z"/>
		<path style="fill:#0059EC;" d="M90.875,437.05c-0.215-1.042,0.59-1.719,0.569-2.622c-0.028-1.17-0.352-2.102-1.531-2.497
			c-1.032-0.345-1.664,0.163-2.075,1.099c-0.489,1.116-1.079,0.989-1.688,0.08c-0.294-0.439-0.56-0.902-0.897-1.306
			c-1.276-1.529-1.761-1.537-3.058-0.103c-1.521,1.681-2.862,1.484-3.655-0.657c-0.392-1.058-0.559-2.223-0.667-3.356
			c-0.191-1.998,0.362-2.605,2.436-2.938c0.434-0.07,0.889-0.073,1.301-0.208c0.838-0.276,1.928-0.585,1.905-1.569
			c-0.029-1.19-1.294-0.963-2.084-1.097c-1.818-0.308-3.634-0.565-5.511-0.248c-1.32,0.223-1.868,0.864-1.775,2.119
			c0.072,0.964,0.232,1.921,0.328,2.884c0.062,0.62,0.093,1.267-0.513,1.667c-0.639,0.423-1.252,0.115-1.669-0.329
			c-1.76-1.877-4.032-2.294-6.447-2.628c-2.174-0.301-4.234-1.045-5.976-2.586c-1.404-1.242-3.202-1.82-5.064-2.111
			c-0.353-0.055-0.723-0.159-0.784-0.566c-0.088-0.593,0.413-0.798,0.819-0.824c2.829-0.179,5.62,0.012,8.29,1.083
			c0.855,0.343,1.65,0.976,2.635,0.671c0.216-0.913-0.322-1.306-0.812-1.648c-1.38-0.962-2.23-2.259-2.482-3.902
			c-0.203-1.328-0.995-1.756-2.215-1.716c-0.616,0.02-1.235,0.022-1.851,0c-1.936-0.069-3.326-0.848-4.031-2.794
			c-0.667-1.842-0.756-1.837-2.694-1.487c-1.299,0.235-2.611,0.463-3.866,0.858c-1.582,0.498-1.775,1.165-0.743,2.492
			c0.875,1.125,1.661,2.28,2.098,3.643c0.239,0.745,0.672,1.591-0.005,2.24c-0.73,0.699-1.497,0.067-2.166-0.293
			c-1.563-0.841-2.978-1.891-4.104-3.282c-1.469-1.814-3.422-2.531-5.645-2.165c-3.707,0.611-6.698-0.981-9.652-2.811
			c-0.459-0.285-0.896-0.623-0.779-1.25c0.14-0.75,0.756-0.94,1.387-0.983c1.775-0.122,3.233,0.753,4.66,1.628
			c0.655,0.402,1.205,0.975,1.779,1.449c0.821-0.39,0.489-0.912,0.281-1.365c-0.538-1.175-1.522-1.908-2.598-2.551
			c-2.912-1.742-5.015-4.352-7.322-6.613c0.183-0.592,0.512-0.743,0.87-0.702c3.06,0.354,6.138,0.612,9.172,1.129
			c3.71,0.633,5.467,2.744,5.836,6.466c0.083,0.842-0.522,2.187,0.988,2.293c1.108,0.077,2.299-2.018,1.96-3.236
			c-0.188-0.675-0.567-1.301-0.721-1.981c-0.206-0.913,0.3-1.341,1.216-1.044c1.281,0.415,2.294,1.272,3.334,2.099
			c1.663,1.324,1.968,1.284,3.641-0.06c0.686-0.551,1.367-1.114,2.094-1.606c1.1-0.745,2.178-0.715,3.485-0.251
			c2.71,0.962,5.316,2.152,7.807,3.483c0.69-0.923-0.029-1.35-0.18-1.893c-0.326-1.173,0.048-1.636,1.284-1.559
			c0.903,0.057,1.697,0.45,2.478,0.864c1.491,0.791,3.047,1.429,4.727,1.618c1.29,0.145,2.184,0.574,2.33,2.007
			c0.055,0.543,0.325,1.034,0.945,1.118c0.738,0.099,1.099-0.427,1.425-0.969c0.467-0.775,0.537-1.669,0.751-2.521
			c0.696-2.769,1.509-3.126,3.788-1.517c1.231,0.869,2.509,1.626,3.849,2.304c1.002,0.507,1.682,0.339,2.016-0.792
			c0.05-0.168,0.117-0.334,0.194-0.492c0.356-0.73,0.736-1.528,1.741-1.222c0.835,0.255,0.905,0.99,0.736,1.744
			c-0.172,0.768-0.044,1.406,0.733,1.772c0.855,0.402,1.651,0.122,2.135-0.54c2.087-2.857,4.717-3.36,7.881-2.067
			c0.463,0.189,1.1,0.262,1.558,0.104c1.853-0.64,3.49,0.092,5.286,0.36c6.788,1.013,13.625,1.316,19.988-2.205
			c2.042-1.13,4.352-1.427,6.645-1.567c2.881-0.176,3.909,0.611,4.79,3.409c0.129,0.408,0.131,0.885,0.67,1.075
			c0.782-0.305,0.915-1.233,1.568-1.699c1.435-1.023,2.953-1.57,4.716-1.064c4.446,1.277,9.075,1.614,13.602,1.579
			c3.012-0.023,6.132-0.783,9.619-0.793c-0.974-1.607-2.006-2.347-3.203-2.902c-1.761-0.816-3.514-1.641-4.947-3.003
			c-0.249-0.237-0.57-0.549-0.869-0.562c-3.401-0.146-5.738-2.559-8.507-4.011c-3.414-1.791-6.959-3.346-10.197-5.467
			c-0.98-0.642-1.713-0.455-2.485,0.486c-1.84,2.243-2.185,2.173-3.563-0.387c-0.418-0.776-0.844-1.55-1.213-2.349
			c-0.559-1.212-1.142-2.279-2.554-2.825c-1.261-0.488-2.301-0.918-3.741-0.391c-1.487,0.544-4.58-1.366-5.476-3.005
			c-1.38-2.526-1.444-2.526-4.049-1.732c-1.175,0.358-2.39,0.598-3.6,0.823c-0.496,0.092-1.093,0.152-1.378-0.461
			c-0.219-0.472,0.073-0.844,0.342-1.193c0.215-0.279,0.436-0.559,0.691-0.8c4.151-3.924,7.88-8.276,12.769-11.437
			c2.469-1.597,4.727-3.659,6.607-6.03c1.696-2.14,3.418-4.262,5.203-6.327c1.157-1.338,1.636-1.243,2.609,0.204
			c0.611,0.908,0.86,1.914,0.947,2.986c0.182,2.233,0.956,4.269,2.224,6.197c0.396-1.576,0.304-3.165,0.112-4.74
			c-0.321-2.635-0.242-5.28-0.287-7.922c-0.035-2.031,0.743-3.542,2.64-4.485c1.574-0.782,3.08-1.686,4.457-2.82
			c1.143-0.941,1.594-0.795,2.139,0.585c0.909,2.298,1.566,4.674,2.001,7.113c0.526,2.949,1.376,5.802,2.812,8.49
			c-0.622-3.766-0.116-7.62-1.123-11.356c-0.503-1.866-0.783-3.795-1.119-5.703c-0.121-0.689-0.158-1.402-0.149-2.103
			c0.013-0.933,0.303-1.824,1.298-2.077c1.05-0.267,1.222,0.709,1.623,1.374c1.79,2.972,3.938,5.559,7.145,7.168
			c2.52,1.264,4.869,2.84,7.029,4.673c0.067,0.057,0.121,0.139,0.197,0.175c2.907,1.406,5.634,3.098,8.178,5.089
			c0.268,0.21,0.727,0.208,0.947,0.444c2.201,2.36,5.583,2.853,7.9,5.024c0.252,0.236,0.576,0.519,0.888,0.549
			c2.516,0.244,4.265,1.953,6.274,3.177c0.822,0.501,1.71,0.975,2.631,1.216c6.649,1.734,12.492,5.232,18.499,8.37
			c0.931,0.486,1.799,1.077,2.487,1.931c1.059,1.315,2.415,1.79,3.969,0.903c1.904-1.086,3.6-0.685,5.077,0.706
			c0.972,0.916,1.934,0.96,3.144,0.675c1.625-0.383,3.288-0.632,4.947-0.836c1.575-0.194,1.817,0.042,1.967,1.657
			c0.163,1.753,0.409,3.512,0.391,5.266c-0.079,8.024,0.574,16.026,0.654,24.045c0.082,8.282,0.709,16.55,0.637,24.837
			c-0.021,2.376,0.007,2.489-2.312,2.157c-3.576-0.511-7.151-1.04-10.487-2.575c-3.188-1.466-6.182-1.183-8.805,1.281
			c-1.369,1.286-2.957,1.673-4.808,1.766c-3.666,0.183-7.04,1.504-10.279,3.172c-0.642,0.331-1.25,0.686-1.146,1.576
			c0.086,0.733-0.335,1.151-0.962,1.397c-1.017,0.399-2.087,0.237-3.139,0.276c-1.072,0.04-1.843-0.343-2.32-1.373
			c-0.372-0.802-1.062-0.763-1.803-0.45c-3.991,1.684-8.315,1.274-12.473,1.91c-1.464,0.224-2.939-0.456-4.382-0.867
			c-1.925-0.548-3.722-0.592-5.537,0.655c-1.72,1.181-3.536,1.452-5.677,0.295c-1.429-0.772-3.269-1.498-5.155-0.208
			c-1.498,1.025-3.288,0.374-4.855-0.198c-4.377-1.6-8.812-1.541-13.235-0.45c-3.331,0.821-6.042-0.314-8.643-2.144
			c-0.985-0.693-0.958-1.797-1.158-2.835c-0.292-1.512-0.772-1.66-1.81-0.68c-2.587,2.441-5.484,2.628-8.313,0.529
			c-0.282-0.21-0.524-0.474-0.809-0.681c-1.74-1.263-2.466-1.211-4.138,0.28c-1.472,1.312-2.397,1.013-2.791-0.941
			c-0.121-0.599-0.05-1.234-0.137-1.843c-0.237-1.662-0.898-2.102-2.53-1.784c-1.21,0.236-2.093,0.876-2.638,1.986
			c-0.513,1.044-1.164,1.969-2.19,2.584c-1.552,0.93-3.102,1.258-4.667,0.033c-0.921-0.721-1.91-1.246-3.132-1.228
			c-0.952,0.014-1.264-0.567-1.025-1.399c0.752-2.623,1.393-5.306,3.399-7.352c1.182-1.205,2.224-2.519,2.864-4.09
			c0.506-1.243,0.138-1.811-1.168-2.018c-2.036-0.323-3.025,0.245-3.821,2.344c-1.185,3.127-1.885,6.405-3.102,9.539
			c-1.057,2.722-2.793,4.199-5.569,4.549C93.086,436.688,92.044,437.379,90.875,437.05z M116.99,411.848
			c0.157,2.169,1.024,4.276,2.131,6.3c0.287,0.525,0.503,1.313,1.211,1.246c0.877-0.084,0.811-1.015,1.032-1.649
			c0.057-0.163,0.077-0.348,0.07-0.522c-0.069-1.688,0.318-3.076,1.971-3.987c1.075-0.592,0.709-1.526-0.058-2.168
			c-1.255-1.05-2.737-1.584-4.393-1.519C117.363,409.611,116.973,410.049,116.99,411.848z"/>
		<path style="fill:#0059EC;" d="M144.889,147.036c-0.93-1.095-2.147-1.084-3.211-1.27c-3.033-0.53-6.075-1.1-9.176-0.958
			c-1.119,0.051-1.824-0.546-2.496-1.252c-2.247-2.359-4.444-4.767-6.72-7.097c-1.973-2.02-4.142-3.802-6.559-5.302
			c-3.202-1.986-5.573-4.832-7.687-7.901c-0.294-0.427-0.662-0.951-0.276-1.441c0.397-0.504,0.961-0.225,1.452-0.019
			c0.081,0.034,0.156,0.083,0.237,0.117c1.353,0.571,2.661,1.645,4.223,0.83c1.973-1.03,3.928-2.269,4.599-4.509
			c0.549-1.835,1.702-2.286,3.331-2.312c2.644-0.042,5.288-0.12,7.932-0.126c1.793-0.004,3.011-0.666,3.57-2.479
			c0.544-1.767,1.252-3.482,1.854-5.232c0.496-1.443,0.612-2.882,0.198-4.408c-0.546-2.013,0.038-3.22,1.921-4.035
			c1.695-0.734,3.458-1.314,5.204-1.928c0.842-0.296,1.447-0.156,1.16,0.947c-0.359,1.377,0.325,1.4,1.248,0.933
			c1.262-0.638,2.418-1.456,3.434-2.447c1.069-1.043,2.026-2.172,3.649-2.465c1.138-0.205,1.439-1.279,1.474-2.26
			c0.094-2.606,1.172-4.96,1.747-7.44c0.435-1.875,1.581-3.35,2.661-4.823c1.098-1.498,2.929-1.44,4.594-1.485
			c0.706-0.019,1.089,0.567,1.162,1.231c0.086,0.785,0.148,1.587,0.09,2.372c-0.142,1.908-0.47,3.736,0.277,5.69
			c0.555,1.453-0.542,2.874-1.48,4.058c-0.711,0.897-0.911,1.619,0.064,2.485c1.696,1.505,2.339,1.363,3.06-0.806
			c0.699-2.105,0.792-2.159,2.711-1.594c1.969,0.58,2.627,0.278,3.185-1.733c0.247-0.891,0.647-1.228,1.482-0.945
			c1.849,0.627,3.724,1.062,5.691,1.045c0.461-0.004,0.934,0.185,0.977,0.688c0.025,0.294-0.186,0.696-0.419,0.908
			c-0.518,0.471-1.125,0.842-1.678,1.276c-0.224,0.175-0.314,0.453-0.162,0.707c0.21,0.353,0.589,0.431,0.906,0.235
			c0.521-0.322,0.988-0.73,1.482-1.097c0.573-0.426,1.234-0.961,1.918-0.663c1.328,0.579,2.109,0.034,2.927-0.93
			c1.1-1.296,2.652-1.189,4.169-1.122c0.829,0.037,1.965,0.319,1.308-1.242c1.051-0.943,1.503-2.248,2.173-3.435
			c0.517-0.915,2.149-0.745,3.613,0.148c2.711,1.654,4.103,1.48,6.759-0.914c-0.939-0.606-2.032-0.585-3.001-0.924
			c-0.589-0.206-1.23-0.426-1.253-1.179c-0.025-0.81,0.517-1.53,1.214-1.498c1.941,0.088,3.552-0.768,5.262-1.418
			c0.794-0.302,1.508,0.16,2.202,0.608c1.804,1.163,1.82,1.138,3.494-0.479c0.646-0.624,1.261-0.453,1.602,0.4
			c0.262,0.653-0.254,1.43,0.368,2.037c0.966,0.196,1.683-0.412,2.385-0.887c2.464-1.67,5.248-2.956,6.908-5.623
			c0.697-1.119,1.511-0.295,2.373-0.01c0.492-0.911,0.206-1.933,0.513-2.827c0.248-0.722,0.092-1.826,1.016-1.978
			c1.059-0.175,1.331,0.952,1.784,1.671c0.414,0.657,0.457,1.527,1.131,2.024c0.527,0.003,0.561-0.415,0.61-0.735
			c0.301-1.963,1.363-2.966,3.411-2.878c1.08,0.046,2.119-0.261,3.018-0.843c2.384-1.543,5.093-1.909,7.811-2.21
			c3.064-0.34,6.131-0.673,9.224-0.637c1.87,0.022,3.554-0.306,4.086-2.511c0.08-0.332,0.277-0.691,0.688-0.712
			c0.536-0.027,0.773,0.387,0.879,0.813c0.212,0.853,0.431,1.716,0.52,2.587c1.028,10.005,1.438,20.034,1.11,30.091
			c-0.049,1.504-0.203,2.99-0.599,4.443c-0.117,0.428-0.314,0.852-0.823,0.909c-0.405,0.045-0.688-0.268-0.795-0.59
			c-1.15-3.456-4.268-4.452-7.139-5.769c-3.924-1.8-7.778-3.761-11.862-5.19c-0.816-0.286-1.609-0.724-2.694-0.603
			c-0.041,0.933,0.707,1.342,1.243,1.794c2.29,1.935,4.644,3.786,7.269,5.266c3.84,2.163,7.57,4.504,11.288,6.872
			c2.082,1.326,3.241,3.109,3.692,5.511c0.603,3.21,0.397,6.399,0.416,9.588c-0.536,0-0.807,0.066-0.855-0.009
			c-2.541-4.035-6.704-5.855-10.746-7.785c-4.145-1.979-8.517-3.366-12.962-4.514c-0.403-0.104-0.833-0.332-1.315,0.17
			c0.527,1.054,1.553,1.61,2.507,2.163c4.716,2.732,9.228,5.885,14.628,7.243c0.591,0.149,1.161,0.425,1.703,0.714
			c0.48,0.256,0.892,0.66,0.677,1.272c-0.237,0.671-0.816,0.565-1.329,0.401c-0.502-0.16-0.982-0.389-1.47-0.593
			c-1.334-0.557-2.764-0.879-4.135-0.498c-1.693,0.47-3.116-0.596-4.55-0.564c-1.322,0.029-2.214,1.964-4.09,1.879
			c-1.022-0.046-2.078,0.852-3.133,1.289c-1.31,0.542-1.641,0.417-1.73-0.896c-0.057-0.853,0.037-1.632-1.089-1.712
			c-1.172-0.084-2.359-0.091-2.973,1.17c-0.264,0.543-0.356,1.174-0.504,1.771c-0.455,1.844-1.649,3.027-3.504,3.079
			c-3.269,0.093-6.205,1.016-8.994,2.686c-1.153,0.69-2.524,0.708-3.853,0.263c-0.667-0.223-1.349-0.415-2.037-0.557
			c-2.506-0.517-2.528-0.519-3.918,1.78c-0.587,0.971-1.394,1.57-2.483,1.807c-3.878,0.84-7.368,2.976-11.377,3.395
			c-0.402,0.042-0.887,0.289-1.139,0.598c-1.443,1.768-3.38,2.786-5.387,3.722c-0.821,0.383-1.403,1.033-1.94,1.75
			c-1.298,1.735-2.96,2.973-5.011,3.737c-2.625,0.978-4.773,2.624-6.371,4.947c-0.984,1.429-2.137,2.557-4.025,2.647
			c-0.803,0.039-1.497,0.504-2.166,0.933c-2.23,1.431-4.501,2.726-7.118,3.395c-1.84,0.47-2.547,2.096-2.872,3.795
			c-0.253,1.322-0.459,2.532-1.716,3.388c-0.946,0.644-0.946,1.82-0.987,2.894c-0.033,0.868,0.08,1.861-0.931,2.287
			c-1.015,0.428-1.825,0.039-2.588-0.742c-0.605-0.619-1.401-1.053-2.118-1.56c-1.458-1.033-2.728-2.236-3.502-3.882
			c-0.303-0.645-0.596-1.322-1.24-1.671c-2.486-1.35-3.702-3.693-4.78-6.116c-0.562-1.264-1.555-2.112-2.463-3.065
			c-0.586-0.615-1.644-1.136-1.292-2.117c0.401-1.119,1.626-0.811,2.549-0.882c1.141-0.088,2.294-0.031,3.434-0.124
			C142.726,147.94,143.873,147.895,144.889,147.036z"/>
		<path style="fill:#0059EC;" d="M80.174,195.317c0.047-0.737-0.56-1.065-1.007-1.428c-1.161-0.942-2.152-1.837-1.122-3.516
			c0.332-0.541-0.111-1.157-0.427-1.711c-1.407-2.467-1.257-4.159,0.824-5.763c1.021-0.787,1.305-1.513,1.034-2.671
			c-0.139-0.593-0.118-1.225-0.156-1.841c-0.11-1.768,0.233-3.329,1.884-4.352c1.071-0.664,1.337-1.43,0.537-2.622
			c-1.092-1.627-0.971-1.654,0.734-2.974c0.751-0.581,1.366-1.338,1.994-1.966c0.078-0.701-0.505-0.686-0.803-0.945
			c-0.607-0.529-0.703-1.204-0.46-1.926c0.267-0.79,0.921-1.04,1.677-0.999c1.077,0.058,2.122-0.01,3.065-0.586
			c0.739-0.451,1.141-0.967,0.714-1.954c-1.167-2.697-1.066-2.866,1.707-4.325c0.123-0.427-0.166-0.635-0.445-0.854
			c-2.155-1.697-1.977-3.591,0.526-4.783c1.268-0.604,2.645-0.974,3.944-1.521c1.272-0.535,2.894-0.676,3.474-2.17
			c0.784-2.019,2.104-3.907,1.71-6.275c-0.128-0.769-0.107-1.586-0.013-2.364c0.216-1.803,0.975-3.045,2.998-3.485
			c2.291-0.498,3.114-1.803,3.2-4.203c0.013-0.352-0.023-0.705-0.015-1.057c0.019-0.863-0.218-1.886,0.796-2.326
			c0.968-0.421,1.674,0.333,2.336,0.879c2.039,1.68,4.092,3.348,6.044,5.126c2.865,2.61,5.663,5.295,8.455,7.984
			c0.693,0.667,1.33,1.423,1.855,2.227c1.148,1.757,0.743,2.686-1.318,3.205c-0.419,0.105-0.86,0.124-1.702,0.238
			c1.211,1.112,2.42,1.525,3.618,1.694c2.958,0.418,5.286,1.944,7.293,3.982c5.193,5.272,10.331,10.598,15.458,15.934
			c0.726,0.755,1.307,1.66,1.891,2.539c0.617,0.929,0.928,1.948,0.164,2.945c-0.703,0.917-1.689,0.851-2.654,0.532
			c-1.792-0.593-3.468-0.186-5.151,0.455c-2.315,0.883-4.074,2.234-5.117,4.631c-1.086,2.495-2.46,4.878-3.86,7.22
			c-1.022,1.71-1.001,3.834-1.967,5.378c-0.89,1.422-3.099,1.844-4.025,3.554c-0.207,0.381-0.668,0.69-0.727,1.075
			c-0.373,2.455-1.652,4.39-3.226,6.231c-0.8,0.936-1.066,2.21-1.451,3.384c-0.526,1.6-1.34,3.024-2.3,4.426
			c-2.75,4.015-4.824,8.311-4.741,13.36c0.05,3.031-0.74,5.927-1.492,8.832c-0.862,3.332-1.151,6.695-0.286,10.084
			c0.223,0.873,0.353,1.813-0.131,2.579c-0.929,1.472-0.549,2.887-0.009,4.303c0.477,1.25,0.839,2.505,0.794,3.854
			c-0.035,1.04,0.403,1.886,1.124,2.589c2.392,2.334,3.076,5.504,4.022,8.499c0.603,1.911-0.232,2.656-2.196,2.287
			c-2.177-0.409-4.316-1.057-6.213-2.182c-3.48-2.064-7.104-3.949-10.076-6.76c-1.262-1.193-3.111-1.684-3.909-3.45
			c-0.297-0.657-1.116-0.289-1.706-0.313c-1.096-0.044-2.151-0.197-2.659-1.342c-0.496-1.118-0.048-2.09,0.696-2.906
			c1.779-1.953,3.623-3.814,5.781-5.396c3.531-2.589,6.524-5.801,9.678-8.858c-1.633-0.031-2.818,0.799-4.058,1.625
			c-4.325,2.882-8.407,6.115-12.847,8.836c-1.41,0.864-2.653,1.161-4.184,0.349c-1.078-0.572-2.291-0.897-3.458-1.29
			c-1.604-0.539-3.128-1.22-4.346-2.428c-1.154-1.145-2.549-1.911-4.037-2.458c-1.674-0.615-3.296-1.342-4.646-2.471
			c-2.53-2.116-5.676-3.146-8.366-4.98c-2.077-1.416-3.412-3.512-5.11-5.258c-1.485-1.527-0.742-4.151,1.076-5.556
			c0.39-0.301,1.345-0.543,0.954-0.997c-0.984-1.142,1.422-1.918,0.027-3.217c-1.422-1.325-1.928-3.314-1.759-5.365
			c0.082-0.992-0.333-1.889-0.678-2.8c-0.468-1.234-0.991-2.472-1.248-3.756c-0.349-1.745-0.046-3.394,1.778-4.255
			c1.115-0.526,1.311-1.334,1.013-2.383c-0.319-1.12-0.477-2.248-0.207-3.392c0.262-1.112,0.724-1.278,1.632-0.603
			c0.279,0.208,0.472,0.536,0.759,0.729c0.542,0.366,1.165,0.497,1.727,0.089c0.551-0.399,0.286-0.946,0.094-1.437
			c-0.515-1.322-0.184-2.604,0.167-3.887c0.36-1.316,0.575-2.566-0.642-3.646c-0.919-0.816-0.459-1.504,0.356-2.152
			c2.022-1.607,2.073-1.744,0.388-3.63c-0.808-0.904-0.937-1.875-0.832-2.931c0.207-2.072-0.339-3.834-1.904-5.246
			c-0.689-0.622-0.858-1.331-0.914-2.308c-0.077-1.326-0.667-2.625-1.429-3.819c-0.69-1.081-0.383-1.813,0.801-2.28
			c1.368-0.54,2.75-0.73,3.933,0.463c0.937,0.946,2.002,1.705,3.143,2.395c1.055,0.638,1.01,1.002-0.028,1.64
			c-0.626,0.385-1.862,0.422-1.505,1.463c0.397,1.158,1.473,0.513,2.297,0.36c0.259-0.048,0.521-0.09,0.784-0.112
			c2.733-0.23,3.419,0.646,2.499,3.183c-0.594,1.639-0.574,1.599,1.074,2.432c0.964,0.487,1.944,0.74,3.013,0.876
			c2.283,0.291,2.897,1.309,2.042,3.413c-0.415,1.02-0.523,2.033-0.525,3.094c-0.002,1.41,0.082,2.827-0.03,4.228
			c-0.158,1.994-0.566,2-2.667,1.967c-1.661-0.026-3.411-0.214-5.735,0.426c2.243,0.712,3.73,1.507,4.266,3.359
			c0.156,0.538,0.692,0.832,1.244,0.846c2.133,0.055,4.163,0.695,6.245,1.038C79.404,195.742,79.875,195.782,80.174,195.317z"/>
		<path style="fill:#0059EC;" d="M100.918,353.023c-1.576-1.156-3.088-1.532-4.774-1.158c-0.424,0.094-0.91-0.091-0.978-0.642
			c-0.049-0.39,0.246-0.619,0.573-0.789c0.713-0.37,2.062-0.389,1.487-1.655c-0.699-1.537-1.611-0.197-2.374,0.109
			c-1.205,0.484-2.431,0.616-3.602,0.122c-1.099-0.464-1.974-0.52-2.851,0.418c-0.782,0.837-1.575,1.022-2.345-0.156
			c-0.665-1.018-1.83-1.28-2.933-1.631c-1.486-0.472-3.072-3.501-2.633-4.92c0.072-0.232,0.27-0.553,0.465-0.599
			c2.226-0.522,3.999-2.706,6.678-1.668c1.031,0.4,2.245,0.391,3.44,0.077c0.26-0.833-0.406-1.575-0.09-2.506
			c0.518-1.525-0.069-2.241-1.679-2.508c-0.862-0.143-1.762-0.056-2.628-0.184c-0.942-0.139-1.589-0.873-1.073-1.674
			c0.904-1.403-0.177-2.949,0.6-4.317c0.357-0.628-0.173-1.161-0.609-1.611c-0.811-0.837-1.405-1.831-1.815-2.896
			c-1.115-2.899-2.465-5.643-4.58-7.969c-0.339-0.373-0.647-0.918-0.679-1.404c-0.171-2.553-1.655-4.621-2.451-6.939
			c-0.057-0.167-0.076-0.38-0.191-0.488c-3.283-3.084-2.923-7.579-4.372-11.37c-0.597-1.563-1.094-3.143-1.958-4.596
			c-0.536-0.901-1.054-1.873-1.285-2.881c-0.336-1.463-1.049-2.576-2.204-3.482c-0.979-0.768-1.586-1.667-0.813-2.954
			c0.171-0.284,0.392-0.794,0.269-0.958c-1.456-1.938,0.268-2.848,1.264-3.941c0.883-0.969,1.971-1.765,2.589-3.738
			c-1.708,1.258-2.959,2.236-4.271,3.124c-0.766,0.519-1.796,1.562-2.533,0.754c-0.903-0.991,0.537-1.624,1.126-2.236
			c2.939-3.055,6.291-5.617,9.728-8.091c2.426-1.746,4.729-3.674,6.737-5.918c1.431-1.599,3.078-2.904,5.141-3.593
			c1.05-0.35,1.771-1.11,2.544-1.833c1.774-1.66,2.582-1.777,4.664-0.485c2.093,1.299,4.041,2.848,6.19,4.04
			c4.715,2.617,9.074,5.708,13.227,9.136c1.272,1.05,2.858,1.727,4.322,2.535c2.223,1.227,3.298,3.106,3.257,5.623
			c-0.039,2.393-0.147,4.919,0.939,7.008c1.097,2.111,1.928,4.324,2.992,6.437c3.25,6.456,6.712,12.788,10.658,18.85
			c0.531,0.816,1.067,1.61,1.784,2.281c0.312,0.292,0.801,0.703,0.767,1.009c-0.326,2.865,2.43,4.169,3.203,6.46
			c0.074,0.219,0.326,0.465,0.546,0.533c3.296,1.008,4.41,4.354,6.781,6.369c1.58,1.343,2.797,3.178,3.467,5.24
			c0.379,1.165,1.222,1.414,2.283,1.247c0.517-0.082,1.019-0.262,1.527-0.402c0.44-0.121,0.938-0.202,1.218,0.195
			c0.366,0.519,0.061,1.042-0.322,1.414c-1.956,1.903-3.826,3.917-5.934,5.639c-5.193,4.244-10.1,8.784-14.559,13.782
			c-2.624,2.941-5.999,4.875-9.032,7.266c-1.868,1.472-3.721,2.906-5.203,4.827c-1.837,2.38-4.334,4.112-6.588,6.078
			c-1.318,1.149-2.835,2.095-3.583,3.806c-0.256,0.587-0.849,0.937-1.54,0.709c-0.584-0.192-0.773-0.719-0.685-1.28
			c0.232-1.484-0.4-2.085-1.87-2.143c-1.702-0.067-2.639-1.603-4.003-2.347c-0.529-0.289-0.341-1.136-0.147-1.734
			c0.457-1.411-0.1-2.408-0.931-3.594c-2.242-3.2-2.076-6.781-0.993-10.373C100.424,353.952,100.702,353.493,100.918,353.023z"/>
		<path style="fill:#0059EC;" d="M264.367,64.204c0.806,0.294,0.878,0.776,0.981,1.177c0.399,1.561,1.519,2.248,2.953,2.71
			c2.758,0.889,5.583,0.728,8.392,0.59c1.718-0.084,3.094,0.485,4.683,1.097c2.764,1.065,4.418,3.737,7.363,4.39
			c1.37,0.304,2.692,0.915,4.118,0.781c1.527-0.143,2.984-0.013,4.415,0.529c0.491,0.186,0.983,0.365,1.499-0.012
			c1.25-0.914,1.709-0.025,2.092,0.963c0.094,0.243,0.118,0.514,0.172,0.773c0.178,0.859,0.221,1.99,1.17,2.197
			c1.215,0.265,0.998-1.2,1.564-1.779c0.368-0.376,0.649-0.84,1.03-1.2c0.651-0.614,1.271-0.462,1.801,0.202
			c0.109,0.137,0.189,0.296,0.284,0.445c1.222,1.912,1.222,1.912,3.158,0.969c1.901-0.926,2.888-0.673,3.872,1.222
			c0.444,0.855,0.774,1.568,1.913,1.336c0.875-0.178,1.532,0.208,2.042,0.91c0.754,1.037,1.66,0.837,2.54,0.227
			c1.013-0.701,1.961-1.497,2.974-2.198c1.224-0.846,2.478-1.677,4.37-0.847c-0.928,1.035-1.951,1.85-1.458,3.376
			c0.278,0.859-0.679,1.314-1.381,1.707c-0.563,0.315-1.04,0.718-0.919,1.45c0.137,0.822,0.808,1.138,1.493,1.32
			c1.321,0.352,2.629,0.211,3.873-0.354c0.56-0.254,1.069-0.62,1.627-0.878c2.299-1.063,3.559-0.152,3.364,2.414
			c-0.191,2.52,0.366,3.182,2.642,3.278c1.093,0.046,1.762-0.332,2.297-1.349c1.415-2.692,2.338-2.72,4.276-0.207
			c0.565,0.732,1.19,1.235,2.096,1.481c1.524,0.414,1.512,0.455,1.364,2.292c1.218,0.294,1.937-0.518,2.739-1.184
			c0.552-0.458,1.244-0.898,1.91-0.396c0.707,0.533,0.265,1.307,0.045,1.949c-0.198,0.579-0.518,1.116-0.777,1.674
			c-0.619,1.336-0.42,1.824,0.96,2.365c0.163,0.064,0.335,0.141,0.505,0.148c2.715,0.117,4.551,1.394,5.846,3.837
			c0.889,1.679,1.861,1.524,2.801-0.235c0.672-1.257,1.567-2.327,2.405-3.458c0.765-1.032,1.472-1.718,2.821-1.111
			c0.52,0.234,0.984-0.025,1.489-0.251c1.409-0.63,1.987-0.386,1.935,1.131c-0.081,2.354-0.051,4.558,0.958,6.816
			c0.617,1.38,0.009,3.12-0.251,4.692c-0.297,1.791,0.294,2.246,1.98,1.767c0.783-0.223,1.41-1.46,2.315-0.642
			c0.692,0.625,0.389,1.676,0.366,2.536c-0.186,6.966,0.467,13.913,0.46,20.874c-0.001,0.529,0.011,1.058,0.002,1.587
			c-0.047,2.83-0.225,2.842-2.861,1.751c-7.307-3.025-14.286-6.893-22.158-8.485c-4.532-0.916-5.207-0.28-4.132,4.334
			c1.739,7.466,3.443,14.941,5.152,22.414c0.216,0.944,0.38,1.901,0.542,2.856c0.112,0.656,0.011,1.31-0.706,1.517
			c-0.821,0.238-1.327-0.251-1.599-1.001c-0.06-0.165-0.119-0.333-0.155-0.505c-0.325-1.553-1.332-2.648-2.446-3.678
			c-0.971-0.899-1.9-1.815-2.438-3.082c-0.578-1.361-1.666-2.08-3.165-1.809c-1.259,0.228-1.997-0.238-2.537-1.332
			c-0.749-1.515-2.14-2.322-3.621-2.929c-1.256-0.515-2.44-1.029-2.925-2.446c-0.08-0.235-0.267-0.491-0.477-0.616
			c-4.597-2.754-8.398-6.72-13.446-8.794c-1.309-0.538-2.601-1.138-4.003-1.325c-2.246-0.3-4.547-0.278-6.189-2.314
			c-0.367-0.455-1.284-0.496-1.964-0.659c-1.065-0.256-1.971-0.713-2.629-1.631c-0.926-1.293-2.216-1.913-3.787-2.152
			c-1.754-0.266-3.289-0.783-4.324-2.579c-0.865-1.5-2.65-1.29-4.086-0.76c-3.369,1.242-6.357,0.71-9.076-1.574
			c-0.691-0.581-1.518-0.884-2.346-1.187c-2.08-0.762-4.247-1.178-6.422-1.524c-2.148-0.343-2.776-0.008-3.688,2.043
			c-0.435,0.978-0.776,1.681-2.088,1.403c-2.236-0.475-2.815-0.788-3.007-2.336c-0.228-1.835-0.418-3.679-0.507-5.525
			c-0.717-14.883-0.69-29.776-0.604-44.67C263.855,67.25,263.71,65.748,264.367,64.204z"/>
		<path style="fill:#0059EC;" d="M58.471,241.5c-0.567-0.816-1.337-1.22-0.829-2.242c1.392-2.799,1.348-2.818-1.087-4.603
			c-0.201-0.147-0.351-0.364-0.495-0.517c0.093-0.83,0.702-0.75,1.2-0.781c1.702-0.106,3.448,0.016,4.846,0.98
			c1.748,1.206,3.706,2.009,5.464,3.161c5.082,3.331,10.135,6.708,15.198,10.069c1.325,0.879,2.61,1.814,3.63,3.049
			c0.644,0.78,0.836,1.506-0.262,2.163c-4.392,2.625-8.335,5.793-11.771,9.61c-3.574,3.971-8.244,6.573-12.469,9.73
			c-0.348,0.26-0.76,0.454-1.17,0.605c-1.399,0.513-2.075-0.027-1.784-1.466c0.139-0.683,0.453-1.331,0.687-1.994
			c0.209-0.594,0.442-1.27-0.04-1.757c-1.096-1.109-0.726-2.207-0.198-3.386c0.404-0.902,0.446-1.894,0.37-2.86
			c-0.339-4.297-0.694-8.594-2.244-12.68c-0.313-0.825-0.637-1.622-1.117-2.378C54.718,243.548,55.238,242.306,58.471,241.5z"/>
		<path style="fill:#0059EC;" d="M244.722,383.397c0.521,0.068,1.007,0.471,1.484,0.845c1.868,1.466,3.741,2.927,5.558,4.455
			c4.046,3.402,8.2,6.65,12.775,9.325c1.148,0.671,2.159,1.534,3.061,2.496c0.832,0.888,0.73,1.558-0.353,2.092
			c-0.857,0.423-1.805,0.725-2.746,0.903c-1.922,0.363-3.786,0.935-5.478,1.863c-3.79,2.08-8.049,2.452-12.108,3.547
			c-1.122,0.303-1.411-0.428-1.483-1.297c-0.153-1.84-0.197-3.69-0.394-5.525c-0.573-5.33-1.526-10.628-1.29-16.023
			c0.031-0.702,0.033-1.407,0.114-2.103C243.906,383.607,244.178,383.365,244.722,383.397z"/>
		<path style="fill:#0059EC;" d="M351.582,131.735c1.175,0.432,2.524,0.849,3.807,1.414c4.744,2.086,9.37,4.432,14.209,6.317
			c2.191,0.853,2.239,2.06,0.442,3.669c-3.358,3.007-6.446,6.212-8.122,10.539c-0.701,1.81-2.377,2.514-4.127,2.943
			c-1.2,0.295-2.033-0.287-2.557-1.356c-0.816-1.665-1.375-3.426-1.864-5.205c-0.933-3.388-1.68-6.824-2.77-10.173
			c-0.72-2.212-0.433-4.532-0.397-6.811C350.215,132.335,350.441,131.651,351.582,131.735z"/>
		<path style="fill:#0059EC;" d="M244.325,424.927c-0.275-1.911,0.509-4.226,0.574-6.599c0.025-0.926,0.576-1.228,1.442-0.792
			c0.079,0.04,0.174,0.066,0.229,0.128c2.791,3.095,7.148,3.563,10.266,6.185c3.029,2.547,5.932,5.23,8.927,7.81
			c0.264,0.227,0.525,0.483,0.703,0.776c0.123,0.201,0.197,0.527,0.121,0.734c-0.151,0.413-0.559,0.424-0.861,0.209
			c-0.966-0.688-1.618-0.298-2.192,0.544c-0.771,1.132-1.919,1.446-3.212,1.482c-2.296,0.065-4.553,0.381-6.723,1.176
			c-0.589,0.216-1.201,0.44-1.78,0.096c-1.711-1.017-3.55-0.875-5.389-0.624c-1.154,0.157-1.611-0.309-1.655-1.422
			C244.653,431.557,244.493,428.485,244.325,424.927z"/>
		<path style="fill:#0059EC;" d="M376.688,137.686c0.208-1.378,0.392-2.594,0.577-3.811c0.68-4.472,0.712-8.96-0.199-13.38
			c-0.604-2.929,0.093-5.777,0.023-8.661c-0.013-0.522,0.184-1.158,0.805-1.195c0.646-0.038,0.819,0.581,0.866,1.111
			c0.07,0.787,0.076,1.58,0.09,2.37c0.021,1.231,0.019,2.462,0.04,3.693c0.017,1.017,0.46,1.823,1.549,1.704
			c3.274-0.358,6.129,1.384,9.255,1.72c0.668,0.072,1.155,0.411,1.352,1.078c0.209,0.706-0.069,1.235-0.715,1.499
			c-1.007,0.411-1.309,1.355-1.814,2.169c-1.528,2.464-3.026,4.94-5.504,6.645c-1.158,0.797-2.033,1.928-2.837,3.1
			c-0.595,0.868-1.268,1.687-1.945,2.495c-0.274,0.327-0.631,0.674-1.13,0.441C376.61,138.434,376.679,137.958,376.688,137.686z"/>
		<path style="fill:#0059EC;" d="M437.671,231.146c-0.177,0.592-0.355,1.179-0.528,1.767c-0.995,3.386-1.612,6.839-1.789,10.366
			c-0.075,1.49-0.216,2.989,0.635,4.359c0.281,0.453,0.318,0.999,0.183,1.534c-0.234,0.924-0.992,1.303-1.797,0.763
			c-0.645-0.433-1.224-1.01-1.715-1.618c-1.544-1.913-3.052-3.856-4.537-5.816c-1.34-1.768-1.279-2.233-0.02-3.926
			c2.228-2.994,5.242-5.181,7.86-7.774c0.376-0.372,0.845-0.711,1.396-0.37C437.534,230.54,437.564,230.883,437.671,231.146z"/>
		<path style="fill:#0059EC;" d="M173.479,74.971c0.719-3.328,1.418-6.846,4.205-9.493c1.868-1.775,2.622-1.662,3.196,0.808
			c0.216,0.931,0.861,0.955,1.446,1.268c1.973,1.057,2.116,2.833,0.214,4.011c-1.032,0.639-1.704,1.447-2.236,2.477
			c-0.748,1.449-1.952,2.477-3.351,3.241C174.988,78.357,173.407,77.367,173.479,74.971z"/>
		<path style="fill:#0059EC;" d="M190.619,77.53c0.015-1.719,0.569-2.639,1.894-2.752c2.972-0.254,5.93-0.439,8.64-1.88
			c0.306-0.163,0.73-0.05,0.88,0.318c0.084,0.205,0.062,0.569-0.071,0.729c-2.182,2.622-4.348,5.279-7.226,7.185
			c-1.058,0.701-2.799-0.025-3.478-1.414C190.881,78.948,190.765,78.054,190.619,77.53z"/>
		<path style="fill:#0059EC;" d="M185.782,87.233c0.483-0.08,1.172-0.215,1.866-0.302c0.365-0.046,0.719,0.085,0.823,0.476
			c0.145,0.544-0.228,0.812-0.67,0.937c-0.331,0.093-0.693,0.115-1.039,0.105c-1.118-0.034-2.05,0.286-2.783,1.191
			c-0.884,1.092-1.829,0.821-2.703-0.03c-1.257-1.224-2.486-2.477-3.728-3.717c-0.831-0.829-0.803-1.704-0.114-2.588
			c0.377-0.484,0.778-0.952,1.208-1.389c0.813-0.828,1.639-1.659,2.967-1c1.196,0.593,2.07,2.128,1.936,3.449
			c-0.018,0.173-0.093,0.339-0.119,0.512C183.115,86.97,183.46,87.349,185.782,87.233z"/>
		<path style="fill:#0059EC;" d="M193.042,66.849c-1.118-0.055-1.886,0-2.329-0.671c-0.541-0.819,0.019-1.51,0.424-2.175
			c0.466-0.765,1.074-1.411,1.937-1.726c1.327-0.485,2.595-1.079,3.816-1.793c1.038-0.607,1.841-0.241,2.448,0.727
			c0.734,1.172,0.771,2.737-0.201,3.055C196.908,64.994,194.882,66.201,193.042,66.849z"/>
		<path style="fill:#0059EC;" d="M166.023,74.252c0.039,1.21-1.561,2.835-2.907,2.956c-1.233,0.11-2.232-0.784-2.235-1.999
			c-0.003-1.389,1.225-2.878,2.463-2.986C164.451,72.125,165.992,73.293,166.023,74.252z"/>
		<path style="fill:#0059EC;" d="M207.088,61.056c-1.951-0.022-2.931-0.696-2.945-1.979c-0.015-1.363,1.214-2.485,2.593-2.368
			c1.462,0.125,2.796,2.146,2.302,3.537C208.683,61.243,207.764,60.962,207.088,61.056z"/>
	</g>
</g>
</svg>
